<svg xmlns="http://www.w3.org/2000/svg" xmlns:xlink="http://www.w3.org/1999/xlink" width="1921.7" height="633.61" viewBox="0 0 1921.7 633.61"><defs><style>.cls-1{fill:url(#linear-gradient);}.cls-2,.cls-3,.cls-4,.cls-5,.cls-6{isolation:isolate;opacity:0.7;}.cls-2{fill:url(#linear-gradient-2);}.cls-3{fill:url(#linear-gradient-3);}.cls-4{fill:url(#linear-gradient-4);}.cls-5{fill:url(#linear-gradient-5);}.cls-6{fill:url(#linear-gradient-6);}</style><linearGradient id="linear-gradient" y1="316.81" x2="1921.7" y2="316.81" gradientUnits="userSpaceOnUse"><stop offset="0" stop-color="#d68fff"/><stop offset="0.14" stop-color="#99b0ff"/><stop offset="0.64" stop-color="#8945f8"/><stop offset="0.69" stop-color="#8145fa"/><stop offset="0.8" stop-color="#7145fe"/><stop offset="0.9" stop-color="#6c45ff"/><stop offset="1" stop-color="#4d45ff"/></linearGradient><linearGradient id="linear-gradient-2" x1="1549.02" y1="-1395.28" x2="1672" y2="-1395.28" gradientTransform="matrix(1, 0, 0, -1, 0, -1257.71)" gradientUnits="userSpaceOnUse"><stop offset="0" stop-color="#131226"/><stop offset="1" stop-color="#d990d0"/></linearGradient><linearGradient id="linear-gradient-3" x1="1519.88" y1="-1405.11" x2="1717.52" y2="-1405.11" gradientTransform="matrix(1, 0, 0, -1, 0, -1257.71)" gradientUnits="userSpaceOnUse"><stop offset="0" stop-color="#131226"/><stop offset="0.13" stop-color="#313239"/><stop offset="0.44" stop-color="#e08bff"/><stop offset="0.7" stop-color="#a84f85"/><stop offset="0.89" stop-color="#c76499"/><stop offset="1" stop-color="#d348a0"/></linearGradient><linearGradient id="linear-gradient-4" x1="928.46" y1="-1536.24" x2="1084.17" y2="-1536.24" gradientTransform="matrix(1, 0, 0, -1, 0, -1257.71)" gradientUnits="userSpaceOnUse"><stop offset="0" stop-color="#131226"/><stop offset="1" stop-color="#559bd7"/></linearGradient><linearGradient id="linear-gradient-5" x1="505.85" y1="-1408.51" x2="559.37" y2="-1408.51" gradientTransform="matrix(1, 0, 0, -1, 0, -1257.71)" gradientUnits="userSpaceOnUse"><stop offset="0" stop-color="#131226"/><stop offset="0.14" stop-color="#24212f"/><stop offset="0.42" stop-color="#5134c7"/><stop offset="0.81" stop-color="#984ad7"/><stop offset="1" stop-color="#7846d1"/></linearGradient><linearGradient id="linear-gradient-6" x1="75.62" y1="-1395.28" x2="153.48" y2="-1395.28" gradientTransform="matrix(1, 0, 0, -1, 0, -1257.71)" gradientUnits="userSpaceOnUse"><stop offset="0" stop-color="#131226"/><stop offset="1" stop-color="#2231d7"/></linearGradient></defs><g id="Layer_1" data-name="Layer 1"><rect class="cls-1" width="1921.7" height="633.61"/><path class="cls-2" d="M1672,137.54A61.49,61.49,0,0,1,1610.51,199c-23.49,0-44.7-14.42-54.73-33.45a55.45,55.45,0,0,1-6.75-28c1-26.53,23.64-61.48,61.48-61.48A61.48,61.48,0,0,1,1672,137.54Z"/><path class="cls-3" d="M1561.21,174.05c-1.22-1.19-45.21,35.66-41.06,41.91,4.55,6.85,67.23-22.64,121-62.53,40.11-29.79,80.29-69.14,76.06-74.84-4.36-5.88-55.46,24.59-54.91,25.71.45.93,36-18.23,38.58-14.13,3,4.76-40.21,37.77-66.35,56.35-36.32,25.82-87.59,57.94-91.63,52.66C1540,195.45,1562.1,174.92,1561.21,174.05Z"/><circle class="cls-4" cx="1006.32" cy="278.53" r="77.86"/><circle class="cls-5" cx="532.61" cy="150.8" r="26.76"/><circle class="cls-6" cx="114.55" cy="137.57" r="38.93"/></g></svg>