<svg xmlns="http://www.w3.org/2000/svg" width="260" height="180" viewBox="0 0 260 180"><defs><style>.cls-1{fill:#9b57ff;}.cls-2{fill:#7826f9;}.cls-3{fill:#b18fff;}.cls-4{fill:#a363ff;}</style></defs><g id="Layer_4" data-name="Layer 4"><circle class="cls-1" cx="179" cy="83.5" r="79.5"/><path class="cls-2" d="M161.5,65.94V110.3a4.75,4.75,0,0,0,7.18,4.08L209.5,88a4.65,4.65,0,0,0,2-3,4.9,4.9,0,0,0-3-5L168,61.51A4.75,4.75,0,0,0,161.5,65.94Z"/><path class="cls-3" d="M152.5,176H2.5V45h150Z"/><path class="cls-4" d="M2.4,163.52l26-32c1.77-2.8,4.78-6.48,9-7,5.12-.64,9.36,3.69,16.17,10.84C73,155.83,74,157.75,76.4,157.52c7.06-.69,8.23-17.87,22-49,10.35-23.41,14.65-24.92,17-25,8.53-.3,15.81,17.38,21,30,4.34,10.53,6.62,20.16,11,39,2.21,9.48,3.87,17.41,5,23H2.4Z"/><circle class="cls-4" cx="29" cy="82.5" r="16.5"/></g></svg>