<svg xmlns="http://www.w3.org/2000/svg" xmlns:xlink="http://www.w3.org/1999/xlink" width="300" height="170" viewBox="0 0 300 170"><defs><style>.cls-1{fill:#c773ff;}.cls-2{fill:url(#linear-gradient);}.cls-3{fill:#333;}.cls-4{fill:#dcdcdc;}.cls-5{fill:#c2c2c2;}.cls-6{fill:#8f8f8f;}.cls-7{fill:#9b57ff;}.cls-8{fill:#7826f9;}.cls-9{fill:#c78fff;}.cls-10{opacity:0.4;}.cls-11{fill:#fffef9;}</style><linearGradient id="linear-gradient" x1="116.75" y1="99.52" x2="116.33" y2="176.29" gradientUnits="userSpaceOnUse"><stop offset="0" stop-color="#fff"/><stop offset="0.49" stop-color="#51514f"/><stop offset="0.61" stop-color="#fff"/><stop offset="0.69" stop-color="#626261"/><stop offset="0.77" stop-color="#474746"/><stop offset="0.92" stop-color="#141414"/><stop offset="1"/></linearGradient></defs><g id="Layer_4" data-name="Layer 4"><circle class="cls-1" cx="231.91" cy="55.71" r="6.24"/><path class="cls-2" d="M67,165.24C97.13,140,101.31,125.46,98.8,116.75c-1.13-3.91-3.51-6.29-2.38-9.5,4.18-11.93,47.94-10.31,49.91-1.91.88,3.73-7.18,5.65-10,12.84-5,13,11.42,31.83,29.48,48Z"/><rect class="cls-3" x="60.73" y="-49.33" width="119.96" height="237" rx="11.12" transform="translate(51.54 189.89) rotate(-90)"/><rect class="cls-4" x="63.49" y="-45.14" width="114.44" height="228.64" rx="11.12" transform="translate(51.54 189.89) rotate(-90)"/><rect class="cls-5" x="85.87" y="19.81" width="52.7" height="94.38"/><rect class="cls-6" x="90.9" y="51.68" width="42.77" height="1.84"/><rect class="cls-6" x="90.9" y="69.03" width="42.77" height="1.84"/><rect class="cls-6" x="90.83" y="34.31" width="42.77" height="1.84"/><rect class="cls-6" x="91.48" y="85.37" width="42.77" height="1.84"/><rect class="cls-6" x="91.48" y="102.01" width="42.77" height="1.84"/><circle class="cls-7" cx="184.84" cy="65.04" r="25.2"/><path class="cls-8" d="M179.29,59.48V73.54a1.5,1.5,0,0,0,2.27,1.29q6.48-4.17,12.94-8.36a1.5,1.5,0,0,0,.64-1,1.56,1.56,0,0,0-.95-1.58l-12.85-5.87A1.51,1.51,0,0,0,179.29,59.48Z"/><path class="cls-9" d="M75.57,67.71H20.79V19.86H75.57Z"/><path class="cls-1" d="M20.42,63.32l9.5-11.68a5,5,0,0,1,3.28-2.56c1.87-.23,3.42,1.35,5.91,4,7.11,7.48,7.45,8.18,8.34,8.09,2.58-.25,3-6.52,8-17.89,3.78-8.55,5.35-9.1,6.21-9.13,3.12-.11,5.77,6.34,7.67,11,1.58,3.85,2.42,7.37,4,14.25.8,3.46,1.41,6.36,1.82,8.4H20.42Z"/><circle class="cls-1" cx="30.46" cy="33.56" r="6.03"/><path class="cls-9" d="M75.57,117.14H21.4V75.59H75.57Z"/><path class="cls-1" d="M21,113.33l9.39-10.15A4.93,4.93,0,0,1,33.68,101c1.85-.2,3.38,1.17,5.84,3.44,7,6.49,7.37,7.1,8.24,7,2.55-.22,3-5.67,8-15.54C59.45,88.46,61,88,61.85,88c3.08-.1,5.7,5.51,7.58,9.51,1.57,3.34,2.39,6.4,4,12.37.8,3,1.4,5.52,1.81,7.3H21Z"/><ellipse class="cls-1" cx="30.97" cy="87.48" rx="5.96" ry="5.23"/><g class="cls-10"><path class="cls-11" d="M30.22,126.4h81.23L186.76,12H116.43Z"/></g><rect class="cls-3" x="214" y="22.61" width="71.57" height="141.39" rx="8"/><rect class="cls-4" x="216.62" y="25.33" width="67.2" height="134.87" rx="6.71"/><rect x="231.46" y="29.6" width="23.56" height="2.62"/><circle cx="262.44" cy="30.91" r="1.31"/><path class="cls-9" d="M278.59,91.05h-56.7V41.53h56.7Z"/><path class="cls-1" d="M221.51,86.51l9.83-12.09a5.21,5.21,0,0,1,3.4-2.65c1.94-.24,3.54,1.4,6.11,4.1,7.36,7.74,7.72,8.47,8.63,8.38,2.67-.26,3.11-6.76,8.32-18.52,3.91-8.85,5.54-9.42,6.42-9.45,3.23-.12,6,6.57,7.94,11.34,1.64,4,2.5,7.62,4.16,14.74.83,3.58,1.46,6.58,1.89,8.69h-56.7Z"/><rect class="cls-5" x="222.14" y="93.6" width="56.44" height="50.28"/><rect class="cls-6" x="227.54" y="116.68" width="45.81" height="1.33"/><rect class="cls-6" x="227.54" y="129.25" width="45.81" height="1.33"/><rect class="cls-6" x="227.45" y="104.11" width="45.81" height="1.33"/><g class="cls-10"><path class="cls-11" d="M226.22,160h31.42q9.62-67.38,19.24-134.76H246.74Z"/></g></g></svg>