<svg xmlns="http://www.w3.org/2000/svg" width="300" height="170" viewBox="0 0 300 170"><defs><style>.cls-1{fill:#4d4d4d;}.cls-2{fill:#666;}.cls-3{fill:#a3a3a3;}.cls-4{fill:#c2c2c2;}.cls-5{fill:#d9d9d9;}.cls-6{fill:#8f8f8f;}.cls-7{fill:#9b57ff;}.cls-8{fill:#7826f9;}.cls-9{fill:#c78fff;}.cls-10{fill:#c773ff;}.cls-11{fill:#333;}.cls-12{opacity:0.4;}.cls-13{fill:#fffef9;}</style></defs><g id="Layer_4" data-name="Layer 4"><path class="cls-1" d="M4,108v15l72,45,187-23c.34-2.33.67-4.67,1-7l-73-32Z"/><path class="cls-2" d="M192,126,14,124c-3.76.8-7.34-.41-9-3a6.89,6.89,0,0,1-1-4V32a9,9,0,0,1,9-9H192a9,9,0,0,1,9,9v85A9,9,0,0,1,192,126Z"/><path class="cls-2" d="M5.55,119.1,200.11,110a1.67,1.67,0,0,1,.7.12L263,136.71a1.66,1.66,0,0,1-.44,3.16L76.61,161a1.58,1.58,0,0,1-.93-.18L4.86,122.2A1.65,1.65,0,0,1,5.55,119.1Z"/><path class="cls-3" d="M28.23,118l155.15-6.73a1.35,1.35,0,0,1,.56.09L233.54,131a1.21,1.21,0,0,1-.35,2.34L84.91,149a1.38,1.38,0,0,1-.75-.13L27.69,120.27A1.21,1.21,0,0,1,28.23,118Z"/><path class="cls-4" d="M192.15,102.21,15.3,111.77A4.08,4.08,0,0,1,11,107.7V32.07A4.08,4.08,0,0,1,15.08,28H191.93A4.07,4.07,0,0,1,196,32.07V98.14A4.07,4.07,0,0,1,192.15,102.21Z"/><rect class="cls-5" x="64.83" y="33.95" width="44.17" height="68.05"/><rect class="cls-6" x="69.05" y="56.93" width="35.85" height="1.33"/><rect class="cls-6" x="69.05" y="69.44" width="35.85" height="1.33"/><rect class="cls-6" x="68.99" y="44.4" width="35.85" height="1.33"/><rect class="cls-6" x="69.54" y="81.22" width="35.85" height="1.33"/><rect class="cls-6" x="69.54" y="93.22" width="35.85" height="1.33"/><circle class="cls-7" cx="148.8" cy="66.18" r="25.2"/><path class="cls-8" d="M143.25,60.61V74.68A1.51,1.51,0,0,0,145.53,76l12.94-8.36a1.47,1.47,0,0,0,.63-1,1.55,1.55,0,0,0-.95-1.59L145.3,59.21A1.51,1.51,0,0,0,143.25,60.61Z"/><path class="cls-9" d="M58.35,67.8H19.64V34H58.35Z"/><path class="cls-10" d="M19.39,64.7l6.7-8.25a3.59,3.59,0,0,1,2.33-1.81c1.32-.16,2.41,1,4.17,2.8,5,5.28,5.26,5.78,5.89,5.72,1.82-.18,2.12-4.61,5.68-12.65,2.67-6,3.78-6.43,4.38-6.45,2.2-.07,4.08,4.49,5.42,7.74A62.59,62.59,0,0,1,56.8,61.87c.57,2.44,1,4.49,1.29,5.93H19.39Z"/><circle class="cls-10" cx="26.48" cy="43.68" r="4.26"/><path class="cls-9" d="M58.07,104H20.26V75H58.07Z"/><path class="cls-10" d="M20,101.34l6.56-7.08a3.41,3.41,0,0,1,2.27-1.55c1.29-.14,2.36.82,4.07,2.4,4.91,4.53,5.15,5,5.76,4.91,1.78-.16,2.07-4,5.54-10.85,2.61-5.18,3.69-5.52,4.29-5.54,2.15-.06,4,3.85,5.29,6.64a49,49,0,0,1,2.77,8.64c.56,2.1,1,3.85,1.26,5.09H20Z"/><ellipse class="cls-10" cx="26.94" cy="83.3" rx="4.16" ry="3.65"/><rect class="cls-11" x="214" y="2" width="82" height="162" rx="11.12"/><rect class="cls-4" x="217" y="5.11" width="77" height="152.12" rx="11.12"/><rect x="234" y="10" width="27" height="3"/><circle cx="269.5" cy="11.5" r="1.5"/><path class="cls-9" d="M288,80.41H223V23.68h65Z"/><path class="cls-10" d="M222.61,75.22l11.26-13.86c.76-1.21,2.07-2.81,3.89-3,2.22-.28,4.06,1.6,7,4.69,8.43,8.87,8.83,9.7,9.89,9.6,3-.3,3.56-7.74,9.52-21.22,4.49-10.14,6.35-10.8,7.37-10.83,3.69-.13,6.84,7.53,9.09,13,1.88,4.56,2.87,8.73,4.77,16.89.95,4.11,1.67,7.55,2.16,10h-65Z"/><circle class="cls-10" cx="234.52" cy="39.92" r="7.15"/><rect class="cls-5" x="223.33" y="83.34" width="64.67" height="57.61"/><rect class="cls-6" x="229.51" y="109.79" width="52.49" height="1.53"/><rect class="cls-6" x="229.51" y="124.19" width="52.49" height="1.53"/><rect class="cls-6" x="229.41" y="95.37" width="52.49" height="1.53"/><g class="cls-12"><path class="cls-13" d="M63,109l39.44-1.55L152.31,28H117.79Z"/></g><g class="cls-12"><path class="cls-13" d="M228,157h36Q275,81,286,5H251.52Z"/></g></g></svg>