<svg id="Layer_1" data-name="Layer 1" xmlns="http://www.w3.org/2000/svg" xmlns:xlink="http://www.w3.org/1999/xlink" width="740" height="560" viewBox="0 0 740 560"><defs><style>.cls-1{fill:#171c22;}.cls-2{fill:#202b2d;}.cls-3{fill:#4c5e64;}.cls-4{fill:#314243;}.cls-5{fill:url(#radial-gradient);}.cls-6{fill:#ab754e;}.cls-7{fill:#241811;}.cls-8{fill:#de92a6;}.cls-9{fill:#dd91a6;}.cls-10{fill:#412714;}.cls-11{fill:#9d8871;}.cls-12{fill:#baa185;}.cls-13{fill:#201d32;}.cls-14{fill:#bba185;}.cls-15{fill:#4b5d64;}.cls-16{fill:#d6c7b7;}.cls-17{fill:#725843;}.cls-18{fill:#6c848d;}.cls-19{fill:#010101;}.cls-20{fill:#dc8ca6;}.cls-21{fill:#d3a97d;}.cls-22{fill:url(#radial-gradient-2);}.cls-23{fill:#d6999c;}.cls-24{fill:#d5999c;}.cls-25{fill:#fff;}.cls-26{fill:#382b22;}.cls-27{fill:#566a71;}.cls-28{fill:#9db7c0;}.cls-29{fill:#6d5648;}.cls-30{fill:#392c23;}.cls-31{fill:url(#linear-gradient);}.cls-32{fill:url(#linear-gradient-2);}.cls-33{fill:#57747a;}</style><radialGradient id="radial-gradient" cx="537.31" cy="-254.68" r="126.45" gradientTransform="matrix(1, 0, 0, -1, 0, -109.98)" gradientUnits="userSpaceOnUse"><stop offset="0" stop-color="#facdab"/><stop offset="0.04" stop-color="#f4c6a4"/><stop offset="0.3" stop-color="#d4a37f"/><stop offset="0.54" stop-color="#be8a65"/><stop offset="0.76" stop-color="#b07a55"/><stop offset="0.92" stop-color="#ab754f"/></radialGradient><radialGradient id="radial-gradient-2" cx="198.93" cy="-253.27" r="126.45" gradientTransform="matrix(1, 0, 0, -1, 0, -109.98)" gradientUnits="userSpaceOnUse"><stop offset="0" stop-color="#feecda"/><stop offset="0.15" stop-color="#f7e0c9"/><stop offset="0.67" stop-color="#e1bb94"/><stop offset="0.92" stop-color="#d9ac80"/></radialGradient><linearGradient id="linear-gradient" x1="315.99" y1="-266.03" x2="333.12" y2="-266.03" gradientTransform="matrix(1, 0, 0, -1, 0, -109.98)" gradientUnits="userSpaceOnUse"><stop offset="0" stop-color="#d9ac80"/><stop offset="1" stop-color="#fdd6af"/></linearGradient><linearGradient id="linear-gradient-2" x1="64.11" y1="-266.03" x2="81.34" y2="-266.03" gradientTransform="matrix(1, 0, 0, -1, 0, -109.98)" gradientUnits="userSpaceOnUse"><stop offset="0" stop-color="#fdd6af"/><stop offset="0.92" stop-color="#d9ac80"/></linearGradient></defs><ellipse class="cls-1" cx="542.74" cy="196.37" rx="125.04" ry="110.97"/><path class="cls-2" d="M483.55,463.87l-24.75-38a11.2,11.2,0,0,0-15.46-3.48,11.09,11.09,0,0,0-3.47,3.48L389.2,505.08c-6.45,10.09,4.5,22.44,14.88,16.77l75.42-41.24a11.85,11.85,0,0,0,4.42-16.14C483.8,464.26,483.68,464.06,483.55,463.87Z"/><path class="cls-2" d="M602.61,450.32l-45.29-1.54a11.18,11.18,0,0,0-10.86,15.5l35.74,87c4.55,11.08,21,9.21,22.27-2.54L614,463.31a11.82,11.82,0,0,0-10.59-12.94A7.52,7.52,0,0,0,602.61,450.32Z"/><path class="cls-2" d="M453.81,312.94,442,356.7a11.18,11.18,0,0,1-18,5.84l-72.7-59.63c-9.26-7.6-2.67-22.73,9-20.55l84.48,15.88a11.81,11.81,0,0,1,9.18,14C453.93,312.45,453.87,312.69,453.81,312.94Z"/><path class="cls-2" d="M631.76,315.69l14.94,42.79A11.2,11.2,0,0,0,665.08,363l68.16-64.77c8.68-8.25,1-22.86-10.43-19.84l-83.1,22A11.8,11.8,0,0,0,631.53,315,7,7,0,0,0,631.76,315.69Z"/><path class="cls-3" d="M435.59,387c-25-6.49-1.46-96.92,23.51-90.43a46.72,46.72,0,1,1-22.69,90.64Z"/><path class="cls-3" d="M665.93,384.14c24.44-8.29-5.59-96.77-30-88.47a46.71,46.71,0,1,0,29.43,88.66Z"/><path class="cls-4" d="M436.84,446.18A182.07,182.07,0,0,1,509.34,310a56.22,56.22,0,0,1,60.72,2.29A192.58,192.58,0,0,1,658.75,455a45.1,45.1,0,0,1-9.58,26.54,44.21,44.21,0,0,1-21,14.53L480.8,495c-2.25.15-20.36,1.07-33.65-13.63S436.47,448.4,436.84,446.18Z"/><path class="cls-5" d="M580.91,263.55c-22,.92-64.56.11-87.31-1-50.77-2.41-98.94-41.26-88-94.78,2.86-14,4.87-37.43,4.74-51.28-.5-52.89,32.22-90.57,86.74-91,24.44-.18,60.83.82,87.55.81,59.61,0,92.81,42.28,83.41,100-2.47,15.13-.83,32.74,1.49,46.11C678.4,223.55,630.07,261.5,580.91,263.55Z"/><path class="cls-6" d="M534.8,254.09h12.47a18,18,0,0,1,18,18h0a18,18,0,0,1-18,18H534.8a18,18,0,0,1-18-18h0A18,18,0,0,1,534.8,254.09Z"/><path class="cls-7" d="M449.18,139.2a3.6,3.6,0,0,1-1.1-2.69c.21-.44.43-.88.67-1.3.6-1,1.37-2,2-3,.23-.23.47-.48.73-.78,11.46-12.94,34.15-8.22,49.11-4.43,3.77,1,5.09,2.22,5,5.48s-3.34,4.33-6.09,3.76c-10.09-2.09-35.89-6.89-45.75.14A39,39,0,0,0,449.18,139.2Z"/><path class="cls-7" d="M630.34,139.2a3.68,3.68,0,0,0,1.1-2.69c-.21-.44-.43-.88-.67-1.3-.6-1-1.36-2-2-3-.22-.23-.46-.48-.72-.78-11.46-12.94-34.16-8.22-49.12-4.43-3.77,1-5.09,2.22-5,5.48s3.34,4.33,6.09,3.76c10.09-2.09,35.89-6.89,45.76.14A39.69,39.69,0,0,1,630.34,139.2Z"/><ellipse class="cls-8" cx="465.82" cy="176.45" rx="17.74" ry="10.69"/><ellipse class="cls-9" cx="613.41" cy="176.45" rx="16.65" ry="10.69"/><path class="cls-10" d="M537.31,67.44q.09-19.23.2-38.41c7.41-1.4,68.26-12,107.22,27.2C675,86.64,674.6,129.5,674.33,161.85a222.91,222.91,0,0,1-13.6,74.41l-80.81,73.32c-2-8.25-3.66-20.82,1.6-33.32,7.41-17.58,22.47-20.64,23.2-34.4.67-12.49-11.39-16.62-11.2-29.6.17-11.63,10-21,18.57-27.21,20.77-22.56,22.53-35.52,19.61-43.34-5.12-13.73-24.4-10.9-35.64-29-10.21-16.47-1-29.62-10.56-40.26C579.82,66.07,567.47,60.6,537.31,67.44Z"/><path class="cls-10" d="M536.4,67.44q-.1-19.23-.2-38.41c-7.42-1.4-68.26-12-107.22,27.2-30.24,30.41-29.88,73.27-29.6,105.62A222.41,222.41,0,0,0,413,236.26l80.81,73.32c2-8.25,3.66-20.82-1.6-33.32-7.41-17.58-22.47-20.64-23.2-34.4-.67-12.49,11.39-16.62,11.2-29.6-.17-11.63-10-21-18.57-27.21-3.46-4.07-21.28-25.81-15.68-51.68.73-3.36,5.9-27.2,22.26-29.85,8.44-1.36,18.91,3.08,23.19,11.92,4.92,10.18.62,24.12-11.25,31.14-.45,1-.8,2-.42,2.33,1.9,1.73,24.74-11.31,29.89-29.54,5.76-20.38-13.87-35.65-6.92-46.53C505.77,68,514.12,64.12,536.4,67.44Z"/><path class="cls-11" d="M435.88,297.1h193a15.36,15.36,0,0,1,15.37,15.36h0a15.37,15.37,0,0,1-15.37,15.37h-193a15.37,15.37,0,0,1-15.37-15.37h0A15.36,15.36,0,0,1,435.88,297.1Z"/><path class="cls-12" d="M435.88,294.21h193a15.36,15.36,0,0,1,15.37,15.36h0a15.37,15.37,0,0,1-15.37,15.37h-193a15.37,15.37,0,0,1-15.37-15.37h0A15.36,15.36,0,0,1,435.88,294.21Z"/><path class="cls-13" d="M552.77,151.93c.85-.54.7-2.24.33-3a2,2,0,0,0-1.55-1.15,17.51,17.51,0,0,1-7.28,1c-3.36-.16-8.09-2.09-10.44-2.43-9.55-1.38-16,3.9-23.27,8.5-14.81,9.36-43.64,11.21-60.45,11.55,1.09,2,2.17,4.1,3.27,6.15,16.17-1.45,46.62-4,60.42-13.77,5.83-4.13,10.76-8,18.43-7.75,3.72.11,7.75,2.81,11.91,2.85a20.14,20.14,0,0,0,8.15-1.51A2,2,0,0,1,552.77,151.93Z"/><path class="cls-14" d="M552.77,309.58A263.8,263.8,0,0,0,626.29,244c16.08-21.15,37.93-50.7,36.93-88.77,0-1.61-.11-2.88-.15-3.44,0,0-2.62-42.09-37.26-75.81C588.33,39.49,511,27.09,459.91,68.84c-44,35.93-43.5,91.5-43.4,95.48,1.14,46.3,30.22,76.29,48.75,95.4a199.35,199.35,0,0,0,80,49.91H493.8c-14.42,1.48-36.17,1.24-56.44-10.53-49.7-28.86-49.29-103.12-49.14-129.54.17-30.66.46-82.65,36.61-120.52C485.32-14.31,614.06-4.54,666,61.71c25.58,32.63,26.68,71.52,27.65,106.14.91,32.4,2.66,94.67-39.35,125.23-17.87,13-37.84,16-51.6,16.55"/><rect class="cls-11" x="516.48" y="186.31" width="28.82" height="228.05" rx="14.41" transform="translate(175.23 795.87) rotate(-83.83)"/><rect class="cls-12" x="522.64" y="173.79" width="33.27" height="243.73" rx="16.63" transform="translate(187.37 800.02) rotate(-83.83)"/><path class="cls-11" d="M516.75,287.5,662,260.5a12.93,12.93,0,0,1,15.07,10.34h0a12.93,12.93,0,0,1-10.35,15.06l-145.24,27a12.91,12.91,0,0,1-15.06-10.33h0A12.92,12.92,0,0,1,516.75,287.5Z"/><path class="cls-12" d="M664.92,282.89,517.26,310.35A13,13,0,0,1,502.13,300l-2.39-12.88c-1.31-7,52.58-12.48,80.65-17.07a263.82,263.82,0,0,0,77.4-25.48,13.21,13.21,0,0,1,9.72,2.05,12.87,12.87,0,0,1,5.41,8.3l2.4,12.88A13,13,0,0,1,664.92,282.89Z"/><path class="cls-2" d="M544.82,419.44h0a7.55,7.55,0,0,1-9.73-2.37L512.4,381.38a6.16,6.16,0,0,1,2-8.48,5.19,5.19,0,0,1,.66-.35h0a7.53,7.53,0,0,1,9.72,2.37l22.67,35.69a6.14,6.14,0,0,1-1.94,8.47C545.25,419.21,545,419.33,544.82,419.44Z"/><path class="cls-2" d="M540.65,419.44h0a6.15,6.15,0,0,1-3-8.18,5.75,5.75,0,0,1,.36-.65l22.72-35.69a7.53,7.53,0,0,1,9.73-2.37h0a6.14,6.14,0,0,1,3,8.17,5.19,5.19,0,0,1-.35.66L550.4,417.07A7.54,7.54,0,0,1,540.65,419.44Z"/><rect class="cls-2" x="512.9" y="371.6" width="59.7" height="12.92" rx="6.46"/><rect class="cls-2" x="512.89" y="434.06" width="59.7" height="12.92" rx="6.46"/><rect class="cls-2" x="512.89" y="453.13" width="59.7" height="12.92" rx="6.46"/><rect class="cls-2" x="512.89" y="472.2" width="59.7" height="12.92" rx="6.46"/><path class="cls-3" d="M506.64,334.33h78.14a12,12,0,0,1,12,12h0a12,12,0,0,1-12,12H506.64a12,12,0,0,1-12-12h0A12,12,0,0,1,506.64,334.33Z"/><path class="cls-15" d="M522.55,357.14a158.58,158.58,0,0,0-49,85,12.32,12.32,0,0,1-7.28,5.58,12,12,0,0,1-9.08-1.2l-8.42-4.86a12,12,0,0,1-4.39-16.36,153.62,153.62,0,0,1,26.52-60.49,148.94,148.94,0,0,1,22.5-24.5,12.16,12.16,0,0,1,7.27-5.58,11.9,11.9,0,0,1,9.09,1.19l8.42,4.86A12,12,0,0,1,522.55,357.14Z"/><path class="cls-3" d="M567.89,357.14a158.64,158.64,0,0,1,49,85,12.26,12.26,0,0,0,7.28,5.58,12.05,12.05,0,0,0,9.08-1.2l8.42-4.86a12,12,0,0,0,4.39-16.36,153.89,153.89,0,0,0-26.51-60.49A149.36,149.36,0,0,0,597,340.35a12.19,12.19,0,0,0-7.27-5.58,11.89,11.89,0,0,0-9.09,1.19l-8.42,4.86A12,12,0,0,0,567.89,357.14Z"/><path class="cls-11" d="M634.6,499.43,671,490.86c3.48-2.88,7.86-7.51,8.44-13.65,1.12-11.78-12.94-17.17-20.85-29.34-15.16-23.31,12-41,3.34-86.54-5-26-17.69-40-22.45-53.68-.39-1.12-1.67-4.95-5.08-7a11.27,11.27,0,0,0-8.57-1.4l-36.38,8.52A11.35,11.35,0,0,0,581,321.42c22.63,20.47,29.4,39,31.43,52.05,4.21,27.08-10,43.08-5.83,76A110.4,110.4,0,0,0,621,491C621.12,491.72,622.12,495.62,634.6,499.43Z"/><path class="cls-12" d="M634.6,494.75,671,486.18c3.48-2.89,7.86-7.52,8.44-13.65,1.12-11.79-12.94-17.17-20.85-29.34-15.16-23.31,12-41,3.34-86.54-5-26-17.69-40-22.45-53.69-.39-1.11-1.67-4.94-5.08-7a11.27,11.27,0,0,0-8.57-1.39l-36.38,8.56A11.35,11.35,0,0,0,581,316.73c22.63,20.48,29.4,39,31.43,52.06,4.21,27.07-10,43.07-5.83,76a110.35,110.35,0,0,0,14.36,41.53C621.12,487,622.12,490.93,634.6,494.75Z"/><path class="cls-11" d="M596.91,315.37A70.79,70.79,0,0,1,625,328.6c4.33,3.38,17.53,14,23.15,32.52,8.3,27.41-6.43,50.89-8.82,54.57,4-11.6,7.51-29.31,1.1-47.41-4.84-13.68-13.93-23.51-24.81-35.27A182.68,182.68,0,0,0,596.91,315.37Z"/><path class="cls-11" d="M674.8,191.89a116.3,116.3,0,0,1-7.51,42.64c-2.68,6.85-11.15,27.8-30.59,39.65-28.75,17.53-59.12,1.57-63.9-1,14.13,3.19,35,4.5,53.78-8.39,14.15-9.73,22.85-24.69,33.26-42.57A255.51,255.51,0,0,0,674.8,191.89Z"/><path class="cls-11" d="M410.82,196.37A116.24,116.24,0,0,0,418.33,239c2.68,6.86,11.15,27.8,30.59,39.66,28.75,17.52,59.12,1.56,63.9-1.06-14.13,3.19-35.05,4.5-53.78-8.38-14.15-9.74-22.85-24.69-33.26-42.58A251.68,251.68,0,0,1,410.82,196.37Z"/><circle class="cls-16" cx="633.27" cy="55.35" r="5.31"/><path class="cls-16" d="M620.14,40.75c1,1.68,3.06,5.06,1.92,6.48-2.15,2.69-13-5.18-27.22-10.36-28-10.2-48.51-2.39-53.31-13-1-2.22-1.37-5.35,0-7.62,4.12-6.85,22-2.74,33.82,0C588.4,19.28,610.23,24.59,620.14,40.75Z"/><path class="cls-16" d="M652.54,305.9c-1.58,6-20.16,5.36-22.53,5.36-12.44,0-22.52-2.4-22.52-5.36,0-1.46,4.25-1.32,22.52-5.36,10.4-2.3,15.7-3.82,19.58-.69C651.16,301.12,653.13,303.66,652.54,305.9Z"/><ellipse class="cls-16" cx="596.76" cy="306.08" rx="3.88" ry="2.54"/><path class="cls-17" d="M618.4,116c-1.3,1.82-6.5.35-9.59-1.2-8.23-4.14-10.21-13.32-10.45-14.48-.18-1-2-10.44,2-12.64,2.39-1.33,6.06.46,8.16,2.53,3.1,3.08,2,6,4.27,12.78C615.57,111.27,619.73,114.2,618.4,116Z"/><ellipse class="cls-17" cx="626.8" cy="119.47" rx="3.2" ry="4.92" transform="translate(259.43 641.18) rotate(-65.64)"/><path class="cls-17" d="M606.11,222.32c-2.23.15-4.39-4.81-5.15-8.17-2-9,3.83-16.35,4.58-17.27.61-.74,6.8-8.16,11-6.5,2.55,1,3.5,5,3.22,7.92-.41,4.35-3.39,5.34-7.17,11.4C608,217.11,608.34,222.17,606.11,222.32Z"/><ellipse class="cls-17" cx="608.73" cy="231.05" rx="3.2" ry="4.92" transform="translate(-39.05 165.31) rotate(-14.99)"/><path class="cls-17" d="M505.48,56.16c3.9.63,8.06,3.38,7.79,5.47-.41,3.08-10,1.16-14.23,6.69-5.6,7.26,3,20.81.24,22.26-1.82,1-7-4.25-9.61-9.61-1.23-2.49-3.34-6.75-2.3-11.76C489,61.24,497.92,54.92,505.48,56.16Z"/><ellipse class="cls-17" cx="502.19" cy="96.18" rx="1.91" ry="2.47" transform="translate(1.78 201.25) rotate(-22.7)"/><path class="cls-17" d="M465.88,221.84c2.23.15,4.39-4.81,5.15-8.17,2-9-3.82-16.35-4.57-17.27-.61-.74-6.8-8.16-11-6.5-2.55,1-3.49,5-3.22,7.92.41,4.34,3.39,5.34,7.17,11.4C464,216.63,463.66,221.69,465.88,221.84Z"/><ellipse class="cls-17" cx="463.15" cy="230.35" rx="4.92" ry="3.2" transform="translate(120.84 618.16) rotate(-75.01)"/><ellipse class="cls-18" cx="463.26" cy="386.59" rx="3.4" ry="2.69" transform="translate(-132.13 484.47) rotate(-49.18)"/><path class="cls-18" d="M484.88,366c6.73-7.24,9.87-6.83,12.27-12.33,1.38-3.15,2.38-7.93.7-9-2.77-1.86-11.67,7-13.42,8.77-10.78,10.76-18.12,24.93-16.08,26.55.9.72,3.46-1.1,6.07-3C479.52,373.36,480.52,370.69,484.88,366Z"/><ellipse class="cls-16" cx="617.12" cy="434.06" rx="2.88" ry="2.67"/><path class="cls-16" d="M615.84,446.24c.49-1.19,1.5-3.58,2.92-3.92,2.7-.64,3.39,6.93,7.43,14.3,7.94,14.49,22.88,17.33,18.93,24.3a9,9,0,0,1-4.58,3.86c-6.17,2.1-12.65-5.92-17-11.24C618.86,467.67,611.11,457.72,615.84,446.24Z"/><path class="cls-19" d="M537.31,194.1a27.07,27.07,0,0,1-20.55-9.89,14.65,14.65,0,0,1-2.93-7.08c-.06-1-.23-5.35,2.93-8.5a11.17,11.17,0,0,1,7.08-2.93c5.9-.68,7.36,2.15,13.23,2.87,8.77,1.07,11.26-4.59,18-2.07.75.28,5.48,2,6.93,6.24a7.85,7.85,0,0,1,.45,3,15.16,15.16,0,0,1-2.93,8.5C555,190.07,546.73,194.2,537.31,194.1Z"/><path class="cls-20" d="M536.68,192.84a20.32,20.32,0,0,1-8.37-2.22,1.65,1.65,0,0,1-.74-2.2,1.54,1.54,0,0,1,.4-.51,13.15,13.15,0,0,1,9.34-3.51c4.68.31,9.42,3.63,9,5.69S540.25,193,536.68,192.84Z"/><path class="cls-19" d="M489.6,158.12a26.52,26.52,0,0,0-32.34.44,3.24,3.24,0,0,1-3.67-.21,3.35,3.35,0,0,1,0-4.74l0,0c4.24-4.48,12.6-7.7,19-7.65,9.74.06,17,4.87,20.57,7.62a3.24,3.24,0,0,1-.4,4.45A3.07,3.07,0,0,1,489.6,158.12Z"/><path class="cls-19" d="M623.4,158.12a26.52,26.52,0,0,0-32.34.44,3.26,3.26,0,0,1-3.68-.21,3.37,3.37,0,0,1,0-4.76c4.25-4.48,12.6-7.7,19-7.65,9.74.06,17,4.87,20.57,7.62a3.25,3.25,0,0,1-.4,4.45A3.09,3.09,0,0,1,623.4,158.12Z"/><path class="cls-4" d="M315.9,281.57c-6.38,27.95-97.85,27.4-117.58,27.28-16.46-.1-111-.68-116.11-27.28-2.67-14,20.66-28.87,23.64-30.77,24.8-15.81,43-5.78,99.13-5.25,55.29.53,75.89-8.85,96,8.4C303.72,256.31,318.73,269.19,315.9,281.57Z"/><path class="cls-2" d="M190.05,448.91l-45.29-1.54a11.18,11.18,0,0,0-10.85,15.5l35.73,87c4.56,11.08,21,9.21,22.27-2.54l9.56-85.43A11.82,11.82,0,0,0,190.88,449,7.7,7.7,0,0,0,190.05,448.91Z"/><path class="cls-2" d="M264.24,448.91l-45.3-1.54a11.18,11.18,0,0,0-10.85,15.5l35.74,87c4.55,11.08,21,9.21,22.26-2.54l9.56-85.43A11.82,11.82,0,0,0,265.06,449,7.52,7.52,0,0,0,264.24,448.91Z"/><path class="cls-2" d="M118.13,317.66l-7.73,44.65A11.19,11.19,0,0,1,93,369.77L15.16,317c-9.92-6.72-4.74-22.39,7-21.27l85.58,8.09a11.82,11.82,0,0,1,10.51,13C118.22,317.1,118.18,317.38,118.13,317.66Z"/><path class="cls-2" d="M314,328.29l-43.94,11.09A11.18,11.18,0,0,0,264,357.29l58.45,73.63c7.45,9.38,22.69,3,20.69-8.62l-14.54-84.73a11.82,11.82,0,0,0-13.79-9.45C314.5,328.17,314.25,328.22,314,328.29Z"/><path class="cls-3" d="M115.22,383.57c-25.62,3.12-36.91-89.63-11.29-92.75a46.72,46.72,0,0,1,11.29,92.75Z"/><path class="cls-3" d="M242.8,356.27c6.1,25.07,96.89,3,90.79-22.07a46.72,46.72,0,0,0-90.79,22.07Z"/><path class="cls-4" d="M98.46,444.77a183.78,183.78,0,0,1,23.07-79.7A181.57,181.57,0,0,1,171,308.61a56.22,56.22,0,0,1,60.72,2.29A192.57,192.57,0,0,1,320.4,453.63a45.07,45.07,0,0,1-9.58,26.55,44.24,44.24,0,0,1-21,14.52L142.4,493.57c-2.25.16-20.36,1.07-33.65-13.63S98.1,447,98.46,444.77Z"/><path class="cls-21" d="M196.43,252.69H208.9a18,18,0,0,1,18,18h0a18,18,0,0,1-18,18H196.43a18,18,0,0,1-18-18h0A18,18,0,0,1,196.43,252.69Z"/><path class="cls-22" d="M242.53,262.14c-22,.92-64.55.11-87.3-1-50.78-2.41-98.94-41.26-88-94.78,2.86-14,4.86-37.43,4.73-51.28-.49-52.89,32.23-90.57,86.75-91,24.44-.18,60.83.82,87.54.81,59.61,0,92.82,42.28,83.42,100-2.47,15.13-.83,32.74,1.48,46.11C340,222.14,291.7,260.09,242.53,262.14Z"/><path class="cls-7" d="M101.46,127.22a3.12,3.12,0,0,1-.76-1.08c-.68-1.69.29-4,2.36-5.88.16-.18.41-.46.72-.77,5.94-6.06,14.16-6.4,28.24-6.77,20.51-.54,24.13-.54,25.77,2.29s1.3,8-.85,9.17a3,3,0,0,1-2.1.15c-5.27-1.28-15.88-1.89-29.63-2.69a49.72,49.72,0,0,0-19.12,2.79Z"/><ellipse class="cls-23" cx="127.45" cy="175.04" rx="17.74" ry="10.69"/><ellipse class="cls-24" cx="275.04" cy="175.04" rx="16.65" ry="10.69"/><ellipse class="cls-19" cx="266.62" cy="149.31" rx="17.37" ry="14.98"/><ellipse class="cls-25" cx="271.8" cy="142.72" rx="5.91" ry="5.1"/><ellipse class="cls-25" cx="263.56" cy="156.06" rx="4.11" ry="3.54"/><ellipse class="cls-19" cx="134.09" cy="149.31" rx="17.37" ry="14.98"/><ellipse class="cls-25" cx="139.27" cy="142.72" rx="5.91" ry="5.1"/><ellipse class="cls-25" cx="131.02" cy="156.06" rx="4.11" ry="3.54"/><path class="cls-26" d="M225.69,71.31l-.49-46.64a76.29,76.29,0,0,1,27.52-6.17c24.16-.76,55.09,10.25,68.51,33.48,8.71,15,6.5,29.09,18.5,34.64,8.32,3.85,18.41,1.29,19,4.14.43,2-4.33,5-8.22,6.51-10.12,3.91-18.07-.68-19.39,1.76-1.87,3.45,13.08,15,17.86,24.24a66.31,66.31,0,0,1,5.32,12.62c3.18,10.89,1.32,16.29,5.7,20.23s10.55,2.2,10.7,3.61c.18,1.86-10.11,7-20,4.34-9.15-2.49-13.31-10.49-15-9.4-2.2,1.45,8.26,13.37,7.13,28.9-.87,11.86-7.56,13.11-7.82,25.93-.18,9.47,3.42,11,2.83,21-.51,8.59-3.88,19.77-8.56,20.23-5.8.57-8.61-15.85-16.9-16.47-4.87-.37-9.43,4.89-13,10.69a44.47,44.47,0,0,1-20.68,11.56c-13.92,3.23-29.51-1-29.86-5.28-.28-3.41,9.27-2.93,17.46-11,12.16-12,5.35-27.25,15-44.16,3.58-6.25,10.48-14.58,25.16-21.16,4.24-17.1,5-34.37-4.27-45.51-8.89-10.68-19.07-6.24-31.81-18-16.7-15.35-9.9-37-23.34-43C240.14,65.35,232,68.12,225.69,71.31Z"/><path class="cls-27" d="M97.51,295.69h193a15.36,15.36,0,0,1,15.37,15.36h0a15.37,15.37,0,0,1-15.37,15.37h-193a15.37,15.37,0,0,1-15.37-15.37h0A15.36,15.36,0,0,1,97.51,295.69Z"/><path class="cls-18" d="M97.51,292.8h193a15.36,15.36,0,0,1,15.37,15.36h0a15.37,15.37,0,0,1-15.37,15.37h-193a15.37,15.37,0,0,1-15.37-15.37h0A15.36,15.36,0,0,1,97.51,292.8Z"/><rect class="cls-27" x="178.11" y="184.91" width="28.82" height="228.05" rx="14.41" transform="matrix(0.11, -0.99, 0.99, 0.11, -125.38, 458.21)"/><rect class="cls-18" x="183.47" y="171.14" width="35.49" height="244.1" rx="17.74" transform="translate(-111.91 461.73) rotate(-83.83)"/><path class="cls-27" d="M178.38,286.07l131.3-24.41A12.92,12.92,0,0,1,324.74,272h0a12.91,12.91,0,0,1-10.34,15.05L183.1,311.46A12.93,12.93,0,0,1,168,301.12h0A12.91,12.91,0,0,1,178.38,286.07Z"/><path class="cls-18" d="M314.72,283.68,178,309.11c-6.53,1.22-12.88-3.5-14.19-10.53L161.4,285.7c-1.3-7,48.68-11.75,74.69-16a227.47,227.47,0,0,0,71.54-24.4,11.79,11.79,0,0,1,9.06,2.18,13.41,13.41,0,0,1,5.14,8.35l2.39,12.89C325.49,275.79,321.25,282.47,314.72,283.68Z"/><path class="cls-2" d="M206.45,418h0a7.55,7.55,0,0,1-9.73-2.37L174,380a6.16,6.16,0,0,1,1.95-8.48,5.07,5.07,0,0,1,.65-.35h0a7.53,7.53,0,0,1,9.73,2.37l22.72,35.69a6.13,6.13,0,0,1-2,8.44C206.85,417.79,206.65,417.9,206.45,418Z"/><path class="cls-2" d="M202.28,418h0a6.15,6.15,0,0,1-3-8.18,5.75,5.75,0,0,1,.36-.65l22.72-35.66a7.53,7.53,0,0,1,9.73-2.37h0a6.15,6.15,0,0,1,3,8.18,5.84,5.84,0,0,1-.35.65L212,415.66A7.55,7.55,0,0,1,202.28,418Z"/><rect class="cls-2" x="174.53" y="370.19" width="59.7" height="12.92" rx="6.46"/><rect class="cls-2" x="174.52" y="432.65" width="59.7" height="12.92" rx="6.46"/><rect class="cls-2" x="174.52" y="451.72" width="59.7" height="12.92" rx="6.46"/><rect class="cls-2" x="174.52" y="470.79" width="59.7" height="12.92" rx="6.46"/><path class="cls-3" d="M168.27,332.93h78.14a12,12,0,0,1,12,12h0a12,12,0,0,1-12,12H168.27a12,12,0,0,1-12-12h0A12,12,0,0,1,168.27,332.93Z"/><path class="cls-15" d="M184.18,355.73a158.58,158.58,0,0,0-49,85,12.32,12.32,0,0,1-7.28,5.58,12,12,0,0,1-9.08-1.2l-8.42-4.86A12,12,0,0,1,106,423.89a153.74,153.74,0,0,1,26.51-60.49,149.36,149.36,0,0,1,22.54-24.46,12.16,12.16,0,0,1,7.27-5.58,11.9,11.9,0,0,1,9.09,1.19l8.42,4.86A12,12,0,0,1,184.18,355.73Z"/><path class="cls-3" d="M229.51,355.73a158.52,158.52,0,0,1,49.05,85,12.24,12.24,0,0,0,7.27,5.58,12.07,12.07,0,0,0,9.09-1.2l8.42-4.86a12,12,0,0,0,4.39-16.36,153.9,153.9,0,0,0-26.52-60.49,149.74,149.74,0,0,0-22.53-24.46,12.19,12.19,0,0,0-7.27-5.58,11.89,11.89,0,0,0-9.09,1.19l-8.42,4.86A12,12,0,0,0,229.51,355.73Z"/><path class="cls-27" d="M296.23,498l36.35-8.56c3.48-2.89,7.86-7.52,8.44-13.65,1.12-11.79-12.94-17.18-20.86-29.35-15.15-23.31,12.06-41,3.35-86.54-5-26-17.69-40-22.45-53.68-.39-1.12-1.67-5-5.08-7a11.27,11.27,0,0,0-8.57-1.4l-36.35,8.57A11.35,11.35,0,0,0,242.62,320c22.63,20.47,29.4,39,31.43,52,4.21,27.08-10,43.08-5.84,76a110.2,110.2,0,0,0,14.37,41.53C282.75,490.31,283.75,494.21,296.23,498Z"/><path class="cls-18" d="M296.23,493.34l36.35-8.57c3.48-2.89,7.86-7.52,8.44-13.65,1.12-11.79-12.94-17.17-20.86-29.34-15.15-23.31,12.06-41,3.35-86.54-5-26-17.69-40-22.45-53.69-.39-1.11-1.67-4.94-5.08-7a11.27,11.27,0,0,0-8.57-1.39l-36.35,8.56a11.35,11.35,0,0,0-8.44,13.65c22.63,20.48,29.4,39,31.43,52.06,4.21,27.07-10,43.07-5.84,76A110.2,110.2,0,0,0,282.58,485C282.75,485.63,283.75,489.52,296.23,493.34Z"/><path class="cls-27" d="M258.54,314a70.75,70.75,0,0,1,28.11,13.23c4.34,3.38,17.54,14,23.16,32.52,8.3,27.42-6.43,50.89-8.82,54.57,4-11.6,7.51-29.31,1.1-47.41-4.85-13.68-13.93-23.51-24.81-35.27A183.78,183.78,0,0,0,258.54,314Z"/><path class="cls-28" d="M314.17,304.49c-1.58,6-20.16,5.36-22.53,5.36-12.44,0-22.52-2.4-22.52-5.36,0-1.46,4.25-1.32,22.52-5.36,10.4-2.3,15.7-3.82,19.58-.69C312.79,299.71,314.76,302.25,314.17,304.49Z"/><ellipse class="cls-28" cx="258.39" cy="304.67" rx="3.88" ry="2.54"/><path class="cls-29" d="M314.93,61.86c-1.18,1.47-5.53.3-8.25-1.27a15,15,0,0,1-5.4-5.74c-6.7-10.77-28.81-7-30.32-13.49-.69-2.94,3.13-6.63,6.41-8.09,7.76-3.44,17,3.67,22.32,7.72C309.08,48.19,317,59.25,314.93,61.86Z"/><ellipse class="cls-29" cx="317.1" cy="72.32" rx="3.2" ry="4.92" transform="matrix(0.76, -0.65, 0.65, 0.76, 29.09, 223.41)"/><path class="cls-29" d="M287,212.15c-2.19-.44-3-5.78-2.86-9.23.38-9.2,7.93-14.8,8.89-15.49.78-.56,8.68-6.12,12.31-3.43,2.2,1.63,2.09,5.71,1.06,8.48-1.52,4.09-4.66,4.28-9.88,9.15C290.11,207.59,289.16,212.58,287,212.15Z"/><ellipse class="cls-29" cx="284.08" cy="220.2" rx="4.92" ry="3.2" transform="translate(-5.11 433.64) rotate(-74.21)"/><ellipse class="cls-18" cx="124.88" cy="385.18" rx="3.4" ry="2.69" transform="translate(-248.24 227.9) rotate(-49.18)"/><path class="cls-18" d="M146.51,364.6c6.73-7.24,9.87-6.83,12.27-12.33,1.38-3.14,2.38-7.93.7-9-2.77-1.86-11.67,7-13.43,8.77C135.28,362.8,127.94,377,130,378.59c.9.72,3.46-1.1,6.07-3C141.15,372,142.15,369.28,146.51,364.6Z"/><ellipse class="cls-28" cx="278.75" cy="432.65" rx="2.88" ry="2.67"/><path class="cls-28" d="M277.47,444.83c.49-1.19,1.5-3.58,2.92-3.92,2.69-.64,3.39,6.93,7.43,14.3,7.94,14.49,22.88,17.33,18.93,24.3a9,9,0,0,1-4.58,3.86c-6.17,2.1-12.65-5.92-17-11.24C280.49,466.26,272.74,456.31,277.47,444.83Z"/><path class="cls-30" d="M224.74,71.43q-.31-23.33-.61-46.65a53.12,53.12,0,0,0-8.38-9.15c-25.56-22.1-64.7-12.53-74-10.27C134.52,7.12,120,11.48,120.35,14c0,.26.26.68,2.34,1.32,8.27,2.55,13.19-1.56,18.51,1.17,2.27,1.17,4.55,3.56,4.12,5.22-.7,2.73-8.49,2.58-13.85,3-25.16,1.9-43.84,19.5-48.25,24.06a73.51,73.51,0,0,0-11.87,16C67,73.24,68.5,75.49,64.82,81.37,57.55,93,44.51,95.81,45.24,98c.86,2.55,18.38-2.87,20.19,1s-13,14.84-17.86,24.24a64.57,64.57,0,0,0-5.33,12.62c-3.17,10.89-1.32,16.29-5.7,20.23s-10.55,2.2-10.69,3.61c-.19,1.86,10.1,7,20,4.34,9.15-2.49,13.3-10.49,15-9.4,2.2,1.45-8.26,13.37-7.13,28.9.86,11.86,7.56,13.11,7.81,25.93.14,7.16-1.88,9.78-2.62,15a42.24,42.24,0,0,0-.2,6.06c.35,8.92,4.45,20.19,8.55,20.23s4-11.11,11.52-13.67c4.64-1.58,11,.5,13.4,4.49,3.91,6.37-3.62,14.95-1.18,17.21,3.19,2.94,21.93-6.09,28.48-20.18,8-17.13-3.25-43.88-29.41-63.71-4.23-17.1-5-34.37,4.28-45.51,8.29-10,17.15-7.26,31.8-17.95,20.6-15,17.59-31.76,32-42.48C168.17,61.39,186.91,56.8,224.74,71.43Z"/><path class="cls-29" d="M99.15,115.1c-1.23-1.45.78-5.48,2.87-7.84a15.24,15.24,0,0,1,6.75-4.17c12-4.45,12.52-26.89,19.3-27.09,3.06-.09,6,4.38,6.8,7.89,1.91,8.29-7,16-12,20.37C113.88,112.06,101.4,117.67,99.15,115.1Z"/><ellipse class="cls-29" cx="90.54" cy="119.91" rx="4.96" ry="3.22" transform="translate(-59.57 113.24) rotate(-50.4)"/><path class="cls-29" d="M66.71,195.86c-2.07.86-5.77-3.17-7.6-6.15-4.92-7.94-1.84-16.87-1.44-18,.33-.91,3.72-10,8.26-9.78,2.75.14,5,3.63,5.69,6.53,1.06,4.29-1.43,6.2-3,13.22C66.73,190.28,68.77,195,66.71,195.86Z"/><ellipse class="cls-29" cx="69.57" cy="207.29" rx="3.2" ry="4.98" transform="translate(-52.23 25.71) rotate(-15.3)"/><path class="cls-31" d="M333.12,156.06c0,9.67-10,18-14,16.45-2.72-1-2.85-6.74-3-14.8-.19-8.46-.38-16.82,3-18.11C323.2,138.06,333.12,146.43,333.12,156.06Z"/><path class="cls-32" d="M64.11,156.06c0,9.65,10,18,14,16.45,3-1.12,3.07-7.61,3.19-15.44s.24-16.2-3.19-17.47C74,138.07,64.12,146.44,64.11,156.06Z"/><path class="cls-7" d="M299.05,127.22a3.29,3.29,0,0,0,.77-1.08c.68-1.69-.29-4-2.36-5.88-.17-.18-.41-.46-.72-.77-5.94-6.06-14.16-6.4-28.24-6.77-20.51-.54-24.13-.54-25.78,2.29s-1.29,8,.86,9.17a3,3,0,0,0,2.1.15c5.27-1.28,15.88-1.89,29.63-2.69a49.75,49.75,0,0,1,19.12,2.79Z"/><path class="cls-29" d="M167.54,6.38c-.61,1.77,2.7,4.83,5.49,6.28a15.27,15.27,0,0,0,7.73,1.5c12.68-.11,21.3,20.6,27.62,18.39,2.85-1,3.93-6.19,3.41-9.74-1.25-8.41-12.22-12.44-18.47-14.73C182.21,4,168.62,3.21,167.54,6.38Z"/><ellipse class="cls-29" cx="154.73" cy="8.69" rx="3.2" ry="4.92" transform="translate(124.46 160.69) rotate(-81.95)"/><path class="cls-28" d="M87.18,277.29c1.58,6,20.16,5.36,22.52,5.36,12.44,0,22.53-2.4,22.53-5.36,0-1.45-4.26-1.31-22.53-5.35-10.39-2.3-15.69-3.83-19.58-.69C88.56,272.52,86.59,275.05,87.18,277.29Z"/><ellipse class="cls-28" cx="142.96" cy="277.47" rx="3.88" ry="2.54"/><circle class="cls-2" cx="29.53" cy="301.43" r="26.5"/><path class="cls-2" d="M41.19,272.08c.26-1.77,2.29-15.76-6.69-21.3-5.52-3.4-14.09-2.92-16.45.91s3.85,7.61,3.75,17.45c-.09,8-4.31,11.21-2,16a9.94,9.94,0,0,0,8.65,5.35C35.56,290.2,40.14,279.31,41.19,272.08Z"/><path class="cls-33" d="M27.63,260.5c0,4.29-2.26,8.64-3.57,8.46-1-.13-.6-2.77-2.37-8.62-1.53-5.06-3-7.13-2-8.3.88-1,3-.58,4.39,0C27.85,253.6,27.63,258.78,27.63,260.5Z"/><ellipse class="cls-33" cx="24.23" cy="271.95" rx="1.38" ry="1.68"/><path class="cls-33" d="M4.7,297.5c.74-5.13,3.62-10.75,5.6-10.49,1.08.15,1.76,2,2,3.17.41,2.59-1.13,4.42-1.92,6.12-3.13,6.77,4.14,15.1,2.4,16.32-1,.74-4.54-1.79-6.45-4.8C3.78,303.86,4.4,299.68,4.7,297.5Z"/><circle class="cls-33" cx="14.21" cy="317.4" r="2.1"/><path class="cls-19" d="M199.51,184.29A27.15,27.15,0,0,1,179,174.4a14.65,14.65,0,0,1-2.93-7.08c-.06-1-.23-5.36,2.93-8.5a11.26,11.26,0,0,1,7.09-2.94c5.89-.67,7.36,2.16,13.22,2.87,8.77,1.07,11.27-4.59,18-2.07.75.28,5.48,2,6.93,6.24a8,8,0,0,1,.45,3,15.16,15.16,0,0,1-2.93,8.5C217.21,180.26,208.93,184.39,199.51,184.29Z"/><path class="cls-20" d="M198.88,183a20.49,20.49,0,0,1-8.37-2.23,1.65,1.65,0,0,1-.73-2.21,1.57,1.57,0,0,1,.39-.49,13.12,13.12,0,0,1,9.34-3.52c4.68.31,9.42,3.64,9.05,5.7S202.45,183.16,198.88,183Z"/></svg>