<svg xmlns="http://www.w3.org/2000/svg" xmlns:xlink="http://www.w3.org/1999/xlink" width="2200" height="400" viewBox="0 0 2200 400"><defs><style>.cls-1{fill:#333;}.cls-1,.cls-6{opacity:0.7;}.cls-2{fill:url(#linear-gradient);}.cls-3{fill:url(#linear-gradient-2);}.cls-4{fill:url(#linear-gradient-3);}.cls-5{fill:#ee5cff;}.cls-6{fill:url(#linear-gradient-4);}.cls-7{opacity:0.4;filter:url(#AI_GaussianBlur_4);}.cls-8{fill:#d6e7f0;}.cls-9{fill:url(#linear-gradient-5);}.cls-10{opacity:0.6;}</style><linearGradient id="linear-gradient" x1="1122" y1="134.55" x2="1338.47" y2="134.55" gradientUnits="userSpaceOnUse"><stop offset="0.01" stop-color="#e999bf"/><stop offset="1" stop-color="#c9003f"/><stop offset="1" stop-color="#c9007d"/></linearGradient><linearGradient id="linear-gradient-2" x1="1351.95" y1="152.6" x2="2110.92" y2="152.6" gradientUnits="userSpaceOnUse"><stop offset="0" stop-color="#d68fff"/><stop offset="0.03" stop-color="#d376ef"/><stop offset="0.13" stop-color="#c826bd"/><stop offset="0.18" stop-color="#c406a9"/><stop offset="0.56" stop-color="#6639de"/><stop offset="1" stop-color="#c9008e"/></linearGradient><linearGradient id="linear-gradient-3" x1="1585.86" y1="325.89" x2="1803.14" y2="88.9" gradientUnits="userSpaceOnUse"><stop offset="0.01" stop-color="#f8beff"/><stop offset="0.03" stop-color="#f4b8fc"/><stop offset="0.17" stop-color="#da90e9"/><stop offset="0.3" stop-color="#c774dc"/><stop offset="0.41" stop-color="#bc62d4"/><stop offset="0.49" stop-color="#b85cd1"/><stop offset="1" stop-color="#9b3bcc"/></linearGradient><linearGradient id="linear-gradient-4" x1="1894.38" y1="108.06" x2="2062.26" y2="108.06" gradientUnits="userSpaceOnUse"><stop offset="0" stop-color="#63c7ff"/><stop offset="0.15" stop-color="#5ec0fc"/><stop offset="0.38" stop-color="#52acf2"/><stop offset="0.65" stop-color="#3d8ce2"/><stop offset="0.95" stop-color="#205fcd"/><stop offset="1" stop-color="#1b58c9"/></linearGradient><filter id="AI_GaussianBlur_4" name="AI_GaussianBlur_4"><feGaussianBlur stdDeviation="4"/></filter><linearGradient id="linear-gradient-5" x1="98.68" y1="178.69" x2="789.59" y2="178.69" gradientUnits="userSpaceOnUse"><stop offset="0" stop-color="#fff"/><stop offset="0.06" stop-color="#dbdbdb"/><stop offset="0.13" stop-color="#b2b2b2"/><stop offset="0.3" stop-color="#f0f0f0"/><stop offset="0.31" stop-color="#f4f4f4"/><stop offset="0.33" stop-color="#e9e9e9"/><stop offset="0.43" stop-color="#c1c1c1"/><stop offset="0.48" stop-color="#b2b2b2"/><stop offset="0.51" stop-color="#c1c1c1"/><stop offset="0.6" stop-color="#e6e6e6"/><stop offset="0.69" stop-color="#f3f3f3"/><stop offset="0.83" stop-color="#e7e7e7"/><stop offset="1" stop-color="#b6b6b6"/></linearGradient></defs><g id="Layer_1" data-name="Layer 1"><rect class="cls-1" x="778.16" y="242.24" width="644.03" height="5.27" transform="translate(-18.52 107.48) rotate(-5.55)"/><rect class="cls-1" x="777.75" y="49.12" width="661.33" height="3.84" transform="translate(10.12 -106.89) rotate(5.55)"/><path class="cls-2" d="M1334.92,160.27c16.09-40.2-25.07-87.29-72.73-100.91C1218.13,46.77,1169.48,63,1169.61,70c.13,6.47,42.59,5.88,46.29,19.92,2.2,8.35-9.67,20.6-23.14,22.57-29.06,4.25-57.07-40.58-67.78-35.85-5.51,2.43-2.45,16.22,1.65,25.23,11.79,25.85,45,40.5,51.2,43.22,13.79,6.07,23.1,7.6,29.8,16.53,4.23,5.63,8.38,15.49,2.92,21.4-6.64,7.18-24.58,5.37-36,1.17-21.42-7.9-27.81-27.25-29.75-26.56-2.11.76.41,25.15,21.49,41.17,28.28,21.48,76.14,17.37,105.79,8C1283.46,203.14,1322.76,190.67,1334.92,160.27Z"/><path class="cls-3" d="M1354.21,90c75.71-31.4,193.55-68.84,338.82-67.76,189.52,1.41,418.15,68.34,417.89,133.27-.28,66.87-243.36,144.28-463.06,124.23-128.31-11.7-229.78-54.93-295.91-90.35Q1353.09,139.71,1354.21,90Z"/><path class="cls-4" d="M1574.16,164.55h253.47a4.14,4.14,0,0,1,3.46,6.43L1681.34,397.75a4.15,4.15,0,0,1-7.23-.56L1570.4,170.42A4.14,4.14,0,0,1,1574.16,164.55Z"/><rect class="cls-5" x="1310.9" y="84.9" width="55.14" height="111.45" rx="5.12"/><path class="cls-6" d="M1903.68,59c12-10.53,35.65-3.62,77.8,8.7,15.55,4.55,26.45,9.1,45.29,17,23.07,9.65,34.63,14.56,35.37,18.53,3.79,20.16-86.42,83.76-136.54,48.74C1894.38,130.14,1885.62,74.88,1903.68,59Z"/><g class="cls-7"><path class="cls-8" d="M2027.74,140.68A67.68,67.68,0,0,1,1993,154.14Q1962.45,104.57,1931.9,55c5.06.64,10.42,1.54,16,2.75a192.8,192.8,0,0,1,28.51,8.5Z"/></g><path class="cls-9" d="M106.65,5.48C179.21,68.9,236.11,79.07,274,77.19c80.73-4,107.63-64.37,217.15-75.7,32.81-3.39,33.34,1.72,125.5,6,73.77,3.41,133.84,2.92,173,2L784,280.39c-31.56,2.1-79.25,4.47-137.47,4.14-81.85-.46-88.19-5.72-123.5-4.14C396.64,286.07,364.88,358.52,282,357c-45-.84-108.08-23.5-183.27-124.38Q102.67,119,106.65,5.48Z"/><g class="cls-10"><path d="M215.77,227.32l-11.23.43c-3.73-10.09-5.6-15.13-9.34-25.22l-46.57,1.8L141,230.22l-11.22.43q15.16-50.28,30.35-100.58c1.93-6.37,5.22-11.22,9.11-11.37s7.48,4.43,9.82,10.64ZM188.2,183.9l-18.51-50.66q-7.62,26-15.26,52Z"/><path d="M285.63,116,288.45,205c.37,11.79-3.78,21.4-9.35,21.62-2.78.1-5.36-2.16-7.34-6l-44.89-88.8,3,95-8.9.35-2.82-89.06c-.37-11.8,3.78-21.41,9.35-21.62,2.78-.11,5.36,2.15,7.34,6l44.89,88.81-3-95Z"/><path d="M308.37,223.73l-8.91.35q-1.72-54.27-3.43-108.53l8.9-.34Q306.65,169.47,308.37,223.73Z"/><path d="M403.46,220l-8.91.35-3.09-97.71-22,89.83c-1.56,6.36-4.58,10.8-8.29,11s-7-4.06-9-10.28q-13.78-44-27.58-87.91L327.66,223l-8.9.35-2.82-89.06c-.37-11.8,3.78-21.41,9.35-21.62,3.8-.15,7.1,4.25,9.16,10.67q13.07,41.72,26.14,83.43,10.46-42.63,20.9-85.26c1.55-6.55,4.66-11.2,8.37-11.35,5.57-.21,10.32,9,10.69,20.85Z"/><path d="M494.66,216.51l-11.22.43-9.35-25.22-46.57,1.8-7.64,25.89-11.22.43Q423.84,169.56,439,119.26c1.94-6.37,5.22-11.22,9.12-11.37s7.47,4.43,9.81,10.64Zm-27.57-43.42q-9.25-25.32-18.5-50.65l-15.27,52Z"/><path d="M544.15,124.83,515.21,126q1.41,44.82,2.83,89.64l-8.9.35q-1.42-44.82-2.84-89.65l-28.95,1.12c-.23-7.55-.35-11.32-.59-18.87l66.8-2.59C543.8,113.51,543.91,117.28,544.15,124.83Z"/><path d="M563.69,213.83l-8.91.35q-1.71-54.26-3.43-108.52l8.91-.35Q562,159.58,563.69,213.83Z"/><path d="M640.69,181.32c-.62,9.79-.42,27.09-13,30L588,212.89c-12.74-2-13.63-19.31-14.85-28.95q-.78-24.76-1.57-49.54c.62-9.79.42-27.08,13-30l39.7-1.54c12.74,2,13.63,19.32,14.85,29Q639.9,156.56,640.69,181.32Zm-8.57,11q-1.12-35.4-2.24-70.78l-49.73,1.93q1.13,35.38,2.24,70.77Z"/><path d="M716.68,99.25l2.82,89.06c.37,11.79-3.79,21.4-9.35,21.62-2.78.11-5.36-2.15-7.34-6q-22.45-44.4-44.89-88.8l3,95-8.9.34-2.82-89.06c-.37-11.79,3.78-21.4,9.35-21.62,2.78-.11,5.36,2.15,7.34,6q22.44,44.42,44.89,88.81-1.5-47.48-3-95Z"/></g></g></svg>