<svg xmlns="http://www.w3.org/2000/svg" width="200" height="160" viewBox="0 0 200 160"><defs><style>.cls-1{fill:#3f0074;}.cls-2{fill:#c773ff;}.cls-3{fill:#ffab00;}.cls-4{fill:#c78fff;}.cls-5{fill:#9b57ff;}.cls-6{fill:#17a4ff;}.cls-7{fill:#8b1d00;}</style></defs><g id="Layer_4" data-name="Layer 4"><rect class="cls-1" x="2" y="32" width="101" height="85" rx="10.4"/><rect class="cls-1" x="53" y="73" width="101" height="85" rx="10.4"/><rect class="cls-1" x="91" y="6" width="101" height="85" rx="10.4"/><rect class="cls-2" x="8" y="28" width="101" height="85" rx="10.4"/><path class="cls-3" d="M37.56,52.85h4.93V81.34a7,7,0,0,1-2,5.11,7.2,7.2,0,0,1-5.17,2H33.4V83.67h1.39A2.44,2.44,0,0,0,37.56,81Zm0-10.25h4.93v5.07H37.56Z"/><path class="cls-3" d="M50.53,70.45a10.12,10.12,0,0,0,7.78,3.25,6.41,6.41,0,0,0,3.48-.85,2.68,2.68,0,0,0,1.36-2.39,2.13,2.13,0,0,0-.81-1.91,4.15,4.15,0,0,0-2.2-.61l-4.36-.39a8.15,8.15,0,0,1-5.05-2.15,6.59,6.59,0,0,1-2-5.05,6.94,6.94,0,0,1,2.68-5.86,10.36,10.36,0,0,1,6.48-2,19.83,19.83,0,0,1,3,.21,15,15,0,0,1,2.54.69A14.44,14.44,0,0,1,67.51,56l-3.06,3.68a15.43,15.43,0,0,0-3-1.75,9.77,9.77,0,0,0-3.6-.61,4.8,4.8,0,0,0-3.25.85,2.8,2.8,0,0,0-1,2.2,1.74,1.74,0,0,0,.73,1.49,4.18,4.18,0,0,0,2.52.91l4.07.32q3.84.28,5.55,2.39a8.33,8.33,0,0,1,1.58,5.21,6.63,6.63,0,0,1-2.91,5.69,12.36,12.36,0,0,1-7.26,2.11A15.38,15.38,0,0,1,47.09,74Z"/><rect class="cls-4" x="59" y="69" width="101" height="85" rx="10.4"/><rect class="cls-5" x="97" y="2" width="101" height="85" rx="10.4"/><path class="cls-6" d="M135,49.79a13.13,13.13,0,0,1-3.79,3.08,10.4,10.4,0,0,1-5,1.29,10.88,10.88,0,0,1-7.63-3q-3.41-3.06-3.49-9.89.09-6.91,3.49-10a10.64,10.64,0,0,1,7.64-3,10.83,10.83,0,0,1,5,1.21,12.55,12.55,0,0,1,3.78,3.2L131.31,36a6.15,6.15,0,0,0-5-2.67c-4.2-.06-6.32,2.58-6.39,7.94s2.19,7.94,6.39,7.86a6,6,0,0,0,5-2.64Z"/><path class="cls-6" d="M139.79,46.12a10.12,10.12,0,0,0,7.78,3.26,6.47,6.47,0,0,0,3.49-.86,2.69,2.69,0,0,0,1.35-2.39,2.13,2.13,0,0,0-.81-1.91,4.15,4.15,0,0,0-2.2-.61L145,43.22a8.15,8.15,0,0,1-5-2.15,6.67,6.67,0,0,1-2-5,7,7,0,0,1,2.68-5.86,10.36,10.36,0,0,1,6.48-1.95,18.78,18.78,0,0,1,3.06.22,15.12,15.12,0,0,1,2.53.68,14.44,14.44,0,0,1,4.07,2.56l-3.06,3.68a15.43,15.43,0,0,0-3-1.75,9.77,9.77,0,0,0-3.6-.61,4.8,4.8,0,0,0-3.25.85,2.83,2.83,0,0,0-1,2.2,1.74,1.74,0,0,0,.74,1.5,4.19,4.19,0,0,0,2.51.9l4.07.32q3.84.29,5.55,2.39a8.27,8.27,0,0,1,1.58,5.21,6.68,6.68,0,0,1-2.9,5.7,12.48,12.48,0,0,1-7.27,2.1,15.38,15.38,0,0,1-10.81-4.54Z"/><path class="cls-6" d="M163.79,46.12a10.12,10.12,0,0,0,7.78,3.26,6.47,6.47,0,0,0,3.49-.86,2.69,2.69,0,0,0,1.35-2.39,2.13,2.13,0,0,0-.81-1.91,4.15,4.15,0,0,0-2.2-.61L169,43.22a8.15,8.15,0,0,1-5-2.15,6.59,6.59,0,0,1-2-5,6.94,6.94,0,0,1,2.68-5.86,10.36,10.36,0,0,1,6.48-1.95,18.78,18.78,0,0,1,3.06.22,15.12,15.12,0,0,1,2.53.68,14.44,14.44,0,0,1,4.07,2.56l-3.06,3.68a15.43,15.43,0,0,0-3-1.75,9.77,9.77,0,0,0-3.6-.61,4.8,4.8,0,0,0-3.25.85,2.8,2.8,0,0,0-1,2.2,1.76,1.76,0,0,0,.73,1.5,4.25,4.25,0,0,0,2.52.9l4.07.32q3.84.29,5.55,2.39a8.33,8.33,0,0,1,1.58,5.21,6.66,6.66,0,0,1-2.91,5.7,12.43,12.43,0,0,1-7.26,2.1,15.38,15.38,0,0,1-10.81-4.54Z"/><path class="cls-7" d="M64.93,95h4.92v12.94H70a7.82,7.82,0,0,1,6.38-3,8.24,8.24,0,0,1,5.57,2.22,8.76,8.76,0,0,1,2.63,6.59V130.6H79.6V115.49a5.59,5.59,0,0,0-1.37-4.06A4.6,4.6,0,0,0,74.75,110a4.66,4.66,0,0,0-3.5,1.41,5.51,5.51,0,0,0-1.4,4.06V130.6H64.93Z"/><path class="cls-7" d="M92.07,97.54H97v7.72h3.6v3.9H97v14.78c0,1.28.55,1.91,1.75,1.88h1.85v4.78H98a5.74,5.74,0,0,1-4.25-1.66,6,6,0,0,1-1.7-4.58v-15.2H89.6v-3.9h2.47Z"/><path class="cls-7" d="M105.47,105.26h4.94v2.68h.09a8.23,8.23,0,0,1,6.62-3,9.44,9.44,0,0,1,4.25.9,12.49,12.49,0,0,1,2.9,2.42,10,10,0,0,1,8-3.32,8.69,8.69,0,0,1,5.76,2.22,8.54,8.54,0,0,1,2.69,6.59V130.6h-4.93V115.49a5.48,5.48,0,0,0-1.42-4.06,4.94,4.94,0,0,0-3.65-1.41,5,5,0,0,0-3.68,1.41,5.34,5.34,0,0,0-1.46,4.06V130.6h-4.93V115.49a5.44,5.44,0,0,0-1.42-4.06,5,5,0,0,0-3.67-1.41,4.94,4.94,0,0,0-3.65,1.41,5.28,5.28,0,0,0-1.5,4.06V130.6h-4.93Z"/><path class="cls-7" d="M148.28,95h4.92v29.08c0,1.16.62,1.74,1.85,1.74h1.71v4.78h-2.2a6.89,6.89,0,0,1-4.44-1.39q-1.85-1.41-1.84-4.74Z"/></g></svg>