<svg xmlns="http://www.w3.org/2000/svg" xmlns:xlink="http://www.w3.org/1999/xlink" width="740" height="560" viewBox="0 0 740 560"><defs><style>.cls-1{fill:url(#linear-gradient);}.cls-2{fill:#333;}.cls-3{fill:#dcdcdc;}.cls-4{fill:url(#linear-gradient-2);}.cls-5{fill:url(#linear-gradient-3);}.cls-6{fill:url(#linear-gradient-4);}.cls-7{fill:url(#linear-gradient-5);}.cls-8{fill:url(#linear-gradient-6);}.cls-9{fill:url(#linear-gradient-7);}.cls-10{fill:url(#linear-gradient-8);}.cls-11{fill:url(#linear-gradient-9);}.cls-12{fill:url(#linear-gradient-10);}.cls-13{fill:url(#linear-gradient-11);}.cls-14{fill:url(#linear-gradient-12);}.cls-15{fill:url(#linear-gradient-13);}.cls-16{opacity:0.4;}.cls-17{fill:#fffef9;}</style><linearGradient id="linear-gradient" x1="357.93" y1="298.45" x2="356.63" y2="532.71" gradientUnits="userSpaceOnUse"><stop offset="0" stop-color="#fff"/><stop offset="0.49" stop-color="#51514f"/><stop offset="0.61" stop-color="#fff"/><stop offset="0.69" stop-color="#626261"/><stop offset="0.77" stop-color="#474746"/><stop offset="0.92" stop-color="#141414"/><stop offset="1"/></linearGradient><linearGradient id="linear-gradient-2" x1="223.02" y1="103.66" x2="238.27" y2="103.66" gradientUnits="userSpaceOnUse"><stop offset="0" stop-color="#d2e0eb"/><stop offset="0.52" stop-color="#3491b2"/><stop offset="0.99" stop-color="#206076"/></linearGradient><linearGradient id="linear-gradient-3" x1="237.9" y1="86.32" x2="258.54" y2="86.32" xlink:href="#linear-gradient-2"/><linearGradient id="linear-gradient-4" x1="260.24" y1="76" x2="285.34" y2="76" xlink:href="#linear-gradient-2"/><linearGradient id="linear-gradient-5" x1="288.05" y1="69.54" x2="318.77" y2="69.54" xlink:href="#linear-gradient-2"/><linearGradient id="linear-gradient-6" x1="555.72" y1="-1115.14" x2="595.22" y2="-1115.14" gradientTransform="matrix(0, 0.93, -1, 0, -769.47, -466.99)" xlink:href="#linear-gradient-2"/><linearGradient id="linear-gradient-7" x1="203.17" y1="-439.44" x2="324.55" y2="-439.44" gradientTransform="translate(-42.51 588.03) rotate(8.28)" xlink:href="#linear-gradient-2"/><linearGradient id="linear-gradient-8" x1="-7727.02" y1="167.48" x2="-7711.77" y2="167.48" gradientTransform="matrix(-1, 0, 0, 1, -7215.12, 0)" xlink:href="#linear-gradient-2"/><linearGradient id="linear-gradient-9" x1="-7712.14" y1="150.14" x2="-7691.5" y2="150.14" gradientTransform="matrix(-1, 0, 0, 1, -7215.12, 0)" xlink:href="#linear-gradient-2"/><linearGradient id="linear-gradient-10" x1="-7689.8" y1="139.82" x2="-7664.7" y2="139.82" gradientTransform="matrix(-1, 0, 0, 1, -7215.12, 0)" xlink:href="#linear-gradient-2"/><linearGradient id="linear-gradient-11" x1="-7661.99" y1="133.36" x2="-7631.27" y2="133.36" gradientTransform="matrix(-1, 0, 0, 1, -7215.12, 0)" xlink:href="#linear-gradient-2"/><linearGradient id="linear-gradient-12" x1="-7616.42" y1="1126.72" x2="-7576.91" y2="1126.72" gradientTransform="matrix(-0.93, 0, 0, 1, -6701.29, -992.76)" xlink:href="#linear-gradient-2"/><linearGradient id="linear-gradient-13" x1="-7658.05" y1="768.79" x2="-7533.49" y2="768.79" gradientTransform="matrix(-0.99, 0.14, 0.14, 0.99, -7172.62, 588.03)" xlink:href="#linear-gradient-2"/></defs><g id="Layer_1" data-name="Layer 1"><path class="cls-1" d="M205.94,499c92.11-77.17,104.86-121.39,97.19-148-3.44-11.92-10.69-19.22-7.25-29,12.76-36.39,146.27-31.45,152.31-5.8,2.68,11.36-21.93,17.23-30.46,39.16-15.38,39.55,34.83,97.14,89.94,146.51Z"/><rect class="cls-2" x="186.96" y="-155.75" width="366.07" height="723.22" rx="11.12" transform="translate(164.14 575.86) rotate(-90)"/><rect class="cls-3" x="195.39" y="-142.98" width="349.22" height="697.68" rx="11.12" transform="translate(164.14 575.86) rotate(-90)"/><circle class="cls-4" cx="230.64" cy="103.66" r="7.62"/><circle class="cls-5" cx="248.22" cy="86.32" r="10.32"/><circle class="cls-6" cx="272.79" cy="76" r="12.55"/><circle class="cls-7" cx="303.41" cy="69.54" r="15.36"/><ellipse class="cls-8" cx="345.66" cy="70.14" rx="21.98" ry="18.44" transform="translate(183.41 383.31) rotate(-74.08)"/><path class="cls-9" d="M254,259.09c-28.3-43.85-44.72-125.71-2.84-156.95,27.56-20.55,78-17.47,94,7,14.31,22-1.3,58-4.26,64.79-10.28,23.69-20,21.69-23.47,39-5.69,28.4,18.55,43.91,8.84,67.14C322.85,288.13,315.46,297,306,299,282.89,303.92,258.35,265.9,254,259.09Z"/><circle class="cls-10" cx="504.27" cy="167.48" r="7.62"/><circle class="cls-11" cx="486.69" cy="150.14" r="10.32"/><circle class="cls-12" cx="462.12" cy="139.82" r="12.55"/><circle class="cls-13" cx="431.51" cy="133.36" r="15.36"/><ellipse class="cls-14" cx="389.25" cy="133.96" rx="18.44" ry="21.98" transform="translate(-21.81 111.9) rotate(-15.92)"/><path class="cls-15" d="M481,322.91c9.35-16.35,20.22-46.45,9.35-57.89-2.53-2.67-9.29-7.52-12.69-16.92-1.16-3.21-1.83-5.16-.94-7,2.95-6.25,17.81-1,23.5-8.46,2.15-2.82,3.19-7.72,1.41-11.28-4.56-9.13-24.24-2.58-33.37-14.57-1.45-1.9-2.83-3.71-2.35-5.64,2.19-8.78,38.6-1.86,41.83-10.81,2.15-5.94-10.89-17.45-23.91-24.33-28.26-14.94-77-19-94,7-14.31,22,1.3,58,4.26,64.78,10.28,23.7,20,21.7,23.48,39,5.68,28.4-18.55,43.91-8.85,67.14,3.37,8.05,10.77,16.92,20.25,18.94C454.25,368.21,479,326.4,481,322.91Z"/><g class="cls-16"><path class="cls-17" d="M118.28,380.47H366.14L596,31.25H381.34Q249.8,205.85,118.28,380.47Z"/></g></g></svg>