<svg xmlns="http://www.w3.org/2000/svg" xmlns:xlink="http://www.w3.org/1999/xlink" width="400" height="550" viewBox="0 0 400 550"><defs><style>.cls-1{fill:#171c22;}.cls-2{fill:#ab754f;}.cls-3{fill:#314243;}.cls-4{fill:#202b2d;}.cls-5{fill:url(#radial-gradient);}.cls-6{fill:url(#radial-gradient-2);}.cls-7{fill:url(#radial-gradient-3);}.cls-8{fill:url(#radial-gradient-4);}.cls-9{fill:#634d43;}.cls-10{fill:#de92a6;}.cls-11{fill:#dd91a6;}.cls-12{fill:#51636a;}.cls-13{fill:#010101;}.cls-14{fill:url(#radial-gradient-5);}.cls-15{fill:#e9dab5;}.cls-16{fill:#f6f0e1;}</style><radialGradient id="radial-gradient" cx="105.48" cy="326.74" r="63.21" gradientUnits="userSpaceOnUse"><stop offset="0" stop-color="#838e8e"/><stop offset="0.09" stop-color="#6e7979"/><stop offset="0.23" stop-color="#525d5e"/><stop offset="0.38" stop-color="#3c4748"/><stop offset="0.54" stop-color="#2c3739"/><stop offset="0.73" stop-color="#232e30"/><stop offset="1" stop-color="#202b2d"/></radialGradient><radialGradient id="radial-gradient-2" cx="281.25" cy="327.49" r="38.8" xlink:href="#radial-gradient"/><radialGradient id="radial-gradient-3" cx="213.35" cy="376.66" r="104.3" gradientTransform="translate(9.98) scale(0.89 1)" gradientUnits="userSpaceOnUse"><stop offset="0" stop-color="#838e8e"/><stop offset="0.28" stop-color="#616e6f"/><stop offset="0.56" stop-color="#465657"/><stop offset="0.81" stop-color="#374748"/><stop offset="1" stop-color="#314243"/></radialGradient><radialGradient id="radial-gradient-4" cx="195.35" cy="-3448.34" r="126.45" gradientTransform="matrix(1, 0, 0, -1, 0, -3316.98)" gradientUnits="userSpaceOnUse"><stop offset="0" stop-color="#facdab"/><stop offset="1" stop-color="#ab754f"/></radialGradient><radialGradient id="radial-gradient-5" cx="197.73" cy="173.84" r="27.53" gradientUnits="userSpaceOnUse"><stop offset="0.01" stop-color="#e999bf"/><stop offset="1" stop-color="#624425"/><stop offset="1" stop-color="#c9007d"/></radialGradient></defs><g id="Layer_1" data-name="Layer 1"><ellipse class="cls-1" cx="200.78" cy="183.01" rx="125.04" ry="110.97"/><path class="cls-2" d="M178.52,230l39.57-.49q2.08,32.38,4.18,64.76l-43.18-6.17Z"/><path class="cls-3" d="M199.37,276.77c-11.55-.19-16.86-5-35.05-14.41-28.2-14.63-42.3-22-51.16-17-9.92,5.58-13.19,25.35-6.78,38.72,8.07,16.86,30.37,21.09,60.77,26.85,15.9,3,27.84,3.48,40.42,4,27.79,1.06,41.68,1.6,52.85-4.24,21.52-11.26,35.61-39.29,28.27-50.31-5.28-7.92-21.14-6.34-25.16-5.94-12.45,1.24-15.22,6.53-35,14.42C215,274.24,208.19,276.92,199.37,276.77Z"/><path class="cls-4" d="M185.68,439.27l-45-5.57a11.19,11.19,0,0,0-12.2,14.47l27.9,89.8c3.55,11.43,20,11,22.41-.57l17.08-84.24a11.82,11.82,0,0,0-9.48-13.78Z"/><path class="cls-4" d="M260.65,437l-45.29-1.54a11.18,11.18,0,0,0-10.86,15.5l35.74,87c4.55,11.08,21,9.21,22.27-2.54L272.06,450A11.82,11.82,0,0,0,261.47,437C261.2,437,260.93,437,260.65,437Z"/><path class="cls-4" d="M111.85,299.58l-11.79,43.76a11.17,11.17,0,0,1-18,5.84L9.36,289.55C.1,282,6.69,266.82,18.36,269l84.48,15.88a11.83,11.83,0,0,1,9.19,14C112,299.1,111.92,299.34,111.85,299.58Z"/><path class="cls-4" d="M289.8,302.33l14.94,42.79a11.19,11.19,0,0,0,18.38,4.51l68.16-64.77c8.68-8.25,1-22.86-10.43-19.84l-83.1,22a11.83,11.83,0,0,0-8.18,14.58C289.64,301.85,289.72,302.09,289.8,302.33Z"/><path class="cls-5" d="M89.27,368.22c-31.71-5.9-1.85-88.13,29.82-82.23,31.76,5.69,51.06,28.76,43.11,51.52s-40.13,36.6-71.88,30.9Z"/><path class="cls-6" d="M307.72,366.94c24.44-7.56-5.59-88.33-30-80.75-24.49,7.41-37.75,31.55-29.62,53.89s34.57,34.46,59,27Z"/><path class="cls-7" d="M101.76,423.7c2.5-53.89,26.24-103.77,64.83-136.18,16.94-11.18,38.16-10.28,54.3,2.29,44.59,31.48,73.81,84.07,79.32,142.71a48.36,48.36,0,0,1-8.57,26.54,39.72,39.72,0,0,1-18.78,14.53l-131.79-1.07A36.16,36.16,0,0,1,111,458.89C99.09,444.19,101.43,425.92,101.76,423.7Z"/><path class="cls-8" d="M239,250.19c-22,.92-64.56.11-87.31-1-50.77-2.41-98.94-41.26-88-94.78,2.86-14,4.87-37.43,4.74-51.28-.5-52.89,32.22-90.57,86.74-91,24.44-.18,60.83.82,87.55.81,59.61,0,92.81,42.28,83.41,100-2.47,15.13-.83,32.74,1.49,46.11C336.44,210.19,288.11,248.14,239,250.19Z"/><path class="cls-9" d="M107.22,125.84a3.61,3.61,0,0,1-1.1-2.69c.21-.44.43-.88.67-1.3.6-1,1.37-2,2-3,.23-.23.47-.48.73-.78,11.46-12.94,34.15-8.22,49.11-4.43,3.77,1,5.09,2.22,5,5.48s-3.34,4.33-6.09,3.76c-10.09-2.09-35.89-6.89-45.75.14A41.26,41.26,0,0,0,107.22,125.84Z"/><path class="cls-9" d="M288.38,125.84a3.57,3.57,0,0,0,1.1-2.69c-.21-.44-.43-.88-.67-1.3-.6-1-1.36-2-2-3-.22-.23-.46-.48-.72-.78-11.46-12.94-34.16-8.22-49.12-4.43-3.77,1-5.09,2.22-5,5.48s3.34,4.33,6.09,3.76c10.09-2.09,35.89-6.89,45.76.14A41.13,41.13,0,0,1,288.38,125.84Z"/><ellipse class="cls-10" cx="123.86" cy="163.09" rx="17.74" ry="10.69"/><ellipse class="cls-11" cx="271.45" cy="163.09" rx="16.65" ry="10.69"/><ellipse class="cls-12" cx="124.32" cy="359.09" rx="3.4" ry="2.69" transform="translate(-228.69 218.44) rotate(-49.18)"/><path class="cls-12" d="M145,338.62c6.73-7.24,9.87-6.83,12.27-12.33,1.38-3.15,2.38-7.93.7-9-2.77-1.86-11.67,7-13.42,8.77-10.78,10.76-18.12,24.93-16.08,26.55.9.72,3.46-1.1,6.07-3C139.66,346,140.66,343.31,145,338.62Z"/><path class="cls-13" d="M147.64,144.76a26.53,26.53,0,0,0-32.34.44,3.21,3.21,0,0,1-3.67-.21,3.35,3.35,0,0,1,0-4.73l0,0c4.24-4.48,12.6-7.7,19-7.65,9.74.06,17,4.87,20.57,7.62a3.24,3.24,0,0,1-.4,4.45A3,3,0,0,1,147.64,144.76Z"/><path class="cls-13" d="M281.44,144.76a26.53,26.53,0,0,0-32.34.44,3.24,3.24,0,0,1-3.68-.21,3.37,3.37,0,0,1,0-4.76c4.25-4.48,12.6-7.7,19-7.65,9.74.06,17,4.87,20.57,7.62a3.25,3.25,0,0,1-.4,4.45A3,3,0,0,1,281.44,144.76Z"/><path class="cls-14" d="M164,174.75c16-17.67,23.59-20.7,27.31-18.83,2,1,4,4,6.91,3.61,2.76-.39,3.56-3.42,5.34-4.55,3-1.91,10.17.55,27.92,17.7-1.36,2.44-9.19,16-25.26,19.66C190.78,195.89,174,189,164,174.75Z"/><path class="cls-15" d="M193.31,52.61l-.38-41.51a90.25,90.25,0,0,0-47.39-4.82C119.6,10.83,103.38,26.06,95,34.14,76.75,51.77,62.39,76.76,52.54,127c-7.9,40.33-8.76,80.37-4.42,142.92a975.76,975.76,0,0,0,24.66,160l65.14,8.22A695.52,695.52,0,0,1,112,298.85c-3.1-38-2.26-66.6.23-90.12,3.21-30.36-.09-78,16.17-127.26,3.86-11.71,9.28-25.41,22.55-32C168.1,41.08,187.61,49.82,193.31,52.61Z"/><path class="cls-15" d="M194.06,52.79q-.24-20.85-.5-41.69A100.89,100.89,0,0,1,233,3.69c52.51,1,83.38,44.5,84.85,46.64C327.69,64.7,330.78,85.47,337,127c1.37,9.25,6.94,48.47,6.14,103.07-.25,16.49-1,30-1.71,39.85a977,977,0,0,1-24.67,160l-65.13,8.22a695.4,695.4,0,0,0,25.88-139.29c3.1-38,2.27-66.6-.22-90.12-.63-5.9.69-74.75-16.18-127.26-1.6-5-4.56-13.54-12.44-20.55C230.91,45.18,203.22,50.6,194.06,52.79Z"/><ellipse class="cls-16" cx="77.12" cy="73.42" rx="3.4" ry="2.69" transform="translate(-29.06 81.36) rotate(-47.87)"/><path class="cls-16" d="M98.29,53.43c6.89-7.09,10-6.61,12.55-12,1.45-3.12,2.56-7.87.9-9-2.72-1.92-11.82,6.73-13.61,8.46C87.1,51.37,79.44,65.37,81.44,67c.89.74,3.49-1,6.14-2.86C92.76,60.66,93.82,58,98.29,53.43Z"/><ellipse class="cls-16" cx="315.12" cy="74.13" rx="2.69" ry="3.4" transform="translate(11.67 186.89) rotate(-33.62)"/><path class="cls-16" d="M306.14,63.44c2.35,2.21,4.67,4.34,5.65,3.74,2.23-1.36-3.28-16.33-12.63-28.36-1.51-2-9.23-11.88-12.21-10.38-1.8.85-1.41,5.72-.44,9,1.7,5.75,4.86,5.74,10.63,13.77C300.88,56.43,301.54,59.2,306.14,63.44Z"/></g></svg>