<svg xmlns="http://www.w3.org/2000/svg" width="170" height="260" viewBox="0 0 170 260"><defs><style>.cls-1{fill:#b266f1;}.cls-2{fill:#ab00e7;}.cls-3{fill:#cb99f5;}</style></defs><g id="Layer_5" data-name="Layer 5"><path class="cls-1" d="M119.49,248.85a12,12,0,0,0,6-15.79L43.34,49.15,19.89,26q.81,16.47,1.63,32.93l82.19,183.91A12,12,0,0,0,119.49,248.85Z"/><path d="M20.07,26.53l.38,10.2,7.18-3.19Z"/><path d="M5.69,255.38c3.22,2,15.29-12.62,21.87-20.42C44,215.48,74.15,175.8,129.09,88.24c.86-1.55,1.79-3.33,2.76-5.31s1.79-3.84,2.65-5.9a111.34,111.34,0,0,0,7.19-25.61,71.62,71.62,0,0,0-23.3,17.36A69.6,69.6,0,0,0,112,77.19c-5.71,8.77-61.28,77.4-97.56,151.94-1.74,3.57-4.95,10.28-8.75,19C5,251,4.31,254.55,5.69,255.38Z"/><path d="M143.43,50.82c5.58,3.17,13-3.18,13.84-3.85,7.92-6.73,9.83-19.87,4.52-29.92-3.41-6.47-9.63-11.31-10.92-10.59s3,5.38,2,10.94c-.83,4.54-4.27,4.67-10,12.51-2.48,3.39-3.73,5.15-4.14,7.87C138.15,41.94,139.28,48.46,143.43,50.82Z"/><path class="cls-2" d="M145.7,27.85c.92,3.91,8.59,6.52,11.31,4.34,1.35-1.08,1-2.95,2.37-3.39,1.82-.6,3.63,2.58,4.81,2.11,1.36-.54,1.23-5.64-.35-10.31C160.18,9.73,149.49,3.67,148.62,4.52c-.5.49,2.78,2.84,2.92,7.29.06,2.19-.93,4.41-2.92,8.75C146.2,25.84,145.36,26.4,145.7,27.85Z"/><path class="cls-3" d="M21.85,57.44A31.78,31.78,0,0,0,43.06,49L27.5,33.4l-7.07,2.83Q21.14,46.83,21.85,57.44Z"/></g></svg>