<svg xmlns="http://www.w3.org/2000/svg" xmlns:xlink="http://www.w3.org/1999/xlink" width="740" height="560" viewBox="0 0 740 560"><defs><style>.cls-1{opacity:0.4;}.cls-2{fill:#fffef9;}.cls-3{fill:#4d4d4d;}.cls-4{fill:#666;}.cls-5{fill:#a3a3a3;}.cls-6{fill:#e8e8e8;}.cls-7{fill:#333;}.cls-8{fill:url(#radial-gradient);}.cls-9{fill:#cce1f7;}.cls-10{fill:#56524f;}.cls-11{fill:#dd91a6;}.cls-12{fill:#fcd9e6;}.cls-13{fill:url(#radial-gradient-2);}.cls-14{fill:#f9c7d7;}.cls-15{fill:url(#radial-gradient-3);}.cls-16{fill:#edabc3;}.cls-17{fill:#fef0f5;}.cls-18{fill:url(#radial-gradient-4);}.cls-19{fill:url(#radial-gradient-5);}.cls-20{fill:url(#radial-gradient-6);}</style><radialGradient id="radial-gradient" cx="290.98" cy="82.49" r="91.92" gradientTransform="translate(-5.75 12.39) rotate(-2.41)" gradientUnits="userSpaceOnUse"><stop offset="0" stop-color="#f0f3fb"/><stop offset="0.31" stop-color="#e0e6f5"/><stop offset="0.92" stop-color="#b6c6e7"/><stop offset="1" stop-color="#b0c1e5"/></radialGradient><radialGradient id="radial-gradient-2" cx="269.81" cy="171.1" r="60.38" gradientTransform="translate(-5.75 12.39) rotate(-2.41)" gradientUnits="userSpaceOnUse"><stop offset="0" stop-color="#f9c7d7"/><stop offset="0.37" stop-color="#ebadbf"/><stop offset="0.75" stop-color="#e198ad"/><stop offset="1" stop-color="#dd91a6"/></radialGradient><radialGradient id="radial-gradient-3" cx="297.77" cy="135.94" r="37.08" gradientTransform="translate(-5.75 12.39) rotate(-2.41)" gradientUnits="userSpaceOnUse"><stop offset="0" stop-color="#fff"/><stop offset="0.31" stop-color="#fde8f0"/><stop offset="0.92" stop-color="#fde1eb"/><stop offset="1" stop-color="#fcd9e6"/></radialGradient><radialGradient id="radial-gradient-4" cx="592.56" cy="287.05" r="65.25" gradientTransform="matrix(1, 0, 0, 1, 0, 0)" xlink:href="#radial-gradient"/><radialGradient id="radial-gradient-5" cx="577.54" cy="349.95" r="42.86" gradientTransform="matrix(1, 0, 0, 1, 0, 0)" xlink:href="#radial-gradient-2"/><radialGradient id="radial-gradient-6" cx="597.38" cy="325" r="26.32" gradientTransform="matrix(1, 0, 0, 1, 0, 0)" xlink:href="#radial-gradient-3"/></defs><g id="Layer_1" data-name="Layer 1"><g class="cls-1"><path class="cls-2" d="M167.21,253.07l108.08-4.25L412,31.08H317.35Z"/></g><path class="cls-3" d="M5.48,254.74l-.39,45.05a4.52,4.52,0,0,0,2.28,3.95L201.55,414a4.46,4.46,0,0,0,2.77.55l494.73-60.85L703.12,326,518.9,245.23a4.53,4.53,0,0,0-1.85-.37L9.93,250.28A4.5,4.5,0,0,0,5.48,254.74Z"/><path class="cls-4" d="M520.77,299.66,32.92,294.18C22.62,296.36,12.8,293,8.26,286a18.84,18.84,0,0,1-2.75-11V42A24.66,24.66,0,0,1,30.17,17.37h490.6A24.66,24.66,0,0,1,545.42,42V275A24.66,24.66,0,0,1,520.77,299.66Z"/><path class="cls-4" d="M9.74,280.75,543,255.85a4.35,4.35,0,0,1,1.91.35L715.36,329a4.54,4.54,0,0,1-1.21,8.66L204.52,395.55a4.32,4.32,0,0,1-2.57-.5L7.86,289.25A4.54,4.54,0,0,1,9.74,280.75Z"/><path class="cls-5" d="M71.92,277.67l424.3-23.37,2.34.9c26.22,10,129.75,47.62,136,58.21.6,1,2.54,4,1.23,5.39a3.53,3.53,0,0,1-2.2,1L227.24,362.67a3.62,3.62,0,0,1-2.05-.37L70.42,284A3.32,3.32,0,0,1,71.92,277.67Z"/><path class="cls-6" d="M528.61,244.56,26.05,273.07c-6.63.38-12.2-5.16-12.2-12.13V35.4c0-6.7,5.18-12.14,11.57-12.14H528c6.39,0,11.57,5.44,11.57,12.14v197A11.9,11.9,0,0,1,528.61,244.56Z"/><rect class="cls-7" x="494.89" y="136.84" width="195.35" height="385.93" rx="11.12"/><rect class="cls-6" x="500.84" y="144.24" width="183.44" height="362.4" rx="11.12"/><rect x="542.53" y="155.9" width="64.32" height="7.15" rx="3.57"/><circle cx="627.1" cy="159.47" r="3.57"/><path class="cls-8" d="M390.14,79.38a8,8,0,0,0,2-5.37c-.41-9.79-23.1-16.78-50.67-15.61-1,0-1.94.09-2.9.15a9.69,9.69,0,0,0,1.26-5.11c-.47-11.36-22.58-19.65-49.37-18.52-19.27.81-35.71,6.28-43.25,13.51a101.28,101.28,0,0,0-11.87-.19c-28,1.18-50.24,13.34-49.66,27.16.39,9.24,10.86,16.87,26.12,20.57-24.53,1.79-43.5,10-43.12,19.06.4,9.54,22.2,16.36,48.7,15.25,19.9-.84,36.78-5.92,43.78-12.44a205.86,205.86,0,0,0,23.09.28,188.79,188.79,0,0,0,33.34-4.2c8.15,8.47,25.3,13.85,44.9,13,27-1.14,48.34-13.61,47.74-27.86C409.89,90.72,402,83.6,390.14,79.38Z"/><path class="cls-9" d="M194,75.65c-1.87-1.41-.61-7.6,2.86-11.52,3-3.37,7.29-4.65,7.65-4.12s-3.48,2.1-4.88,6.24c-1.28,3.8.65,6.29-1.21,8.32C197.22,75.84,195,76.43,194,75.65Z"/><ellipse class="cls-9" cx="208.52" cy="58.09" rx="2.57" ry="1.62" transform="translate(-6.8 80.29) rotate(-21.45)"/><polygon class="cls-10" points="282.57 191.95 294.29 250.39 300.6 249.67 296.93 190.31 282.57 191.95"/><polygon class="cls-10" points="200.98 178.97 195.49 238.3 201.44 239.34 214.54 181.34 200.98 178.97"/><polygon class="cls-10" points="320.57 171.75 332.29 230.19 338.6 229.47 334.93 170.12 320.57 171.75"/><polygon class="cls-10" points="249.46 164.34 248.5 223.94 254.81 224.57 263.84 165.79 249.46 164.34"/><polygon class="cls-11" points="187.24 179.63 187.71 190.84 288.27 202.07 355.29 175.36 354.71 161.85 187.24 179.63"/><line class="cls-12" x1="314.57" y1="139.8" x2="326.88" y2="136.5"/><polygon class="cls-11" points="337.19 156.79 345.41 110.08 340.6 108.83 283.51 122.22 337.19 156.79"/><path class="cls-13" d="M288.46,186.38l-101.23-7,84.58-22.64,82.9,4.86Z"/><polygon class="cls-11" points="288.14 202.07 286.49 162.78 301.95 164.8 303.49 201.42 288.14 202.07"/><polygon class="cls-11" points="187.12 190.47 185.48 151.63 200.95 153.62 202.47 189.83 187.12 190.47"/><polygon class="cls-14" points="286.49 162.78 333.37 147.06 354.06 146.19 355.29 175.36 303.48 200.98 301.95 164.77 286.49 162.78"/><path class="cls-14" d="M185.48,151.63l62.22-15.29,19.82.57,4.29,19.87-69.73,23.66L201,153.61Z"/><path class="cls-15" d="M254.75,161.38l11-53.29,74.42.76-6.8,38.25-46.88,15.72.09,2.2Z"/><path class="cls-16" d="M201,153.61l58.35-14.26q-1.55,11.42-3.08,22.82l-54.14,18.27Z"/><path class="cls-17" d="M267.4,125.4c-1.11-.2-2.31-9.12,1.94-12.4,1.81-1.4,4.3-1.55,4.53-1.07s-3.12,1.5-4.2,4.57c-.79,2.23.35,3.61-.78,6.54C268.7,123.52,267.94,125.49,267.4,125.4Z"/><ellipse class="cls-17" cx="277.16" cy="112.53" rx="2.06" ry="1.02" transform="translate(-4.49 11.78) rotate(-2.41)"/><path class="cls-18" d="M664.78,287.85a5.67,5.67,0,0,0,1.6-3.74c0-7-15.88-12.59-35.47-12.59-.7,0-1.38,0-2.06,0a7,7,0,0,0,1-3.59c0-8.07-15.43-14.61-34.47-14.61-13.69,0-25.52,3.39-31.07,8.29a71.66,71.66,0,0,0-8.42-.49c-19.9,0-36,8-36,17.78,0,6.56,7.2,12.29,17.91,15.37-17.45.53-31.15,5.8-31.15,12.22,0,6.78,15.26,12.27,34.08,12.27,14.14,0,26.26-3.09,31.42-7.51a146.18,146.18,0,0,0,16.37.89,133,133,0,0,0,23.77-2c5.53,6.25,17.53,10.58,31.45,10.58,19.16,0,34.69-8.2,34.69-18.32C678.45,296.49,673.09,291.2,664.78,287.85Z"/><path class="cls-9" d="M525.76,279.34c-1.29-1-.21-5.41,2.38-8.08,2.22-2.3,5.3-3.08,5.54-2.69s-2.53,1.38-3.64,4.27c-1,2.66.26,4.48-1.11,5.87C528.06,279.57,526.48,279.93,525.76,279.34Z"/><ellipse class="cls-9" cx="536.61" cy="267.32" rx="1.82" ry="1.15" transform="translate(-57.85 189.68) rotate(-19.04)"/><polygon class="cls-10" points="585.12 364.47 591.69 406.27 596.19 405.95 595.36 363.74 585.12 364.47"/><polygon class="cls-10" points="527.65 352.83 521.98 394.74 526.17 395.66 537.19 354.91 527.65 352.83"/><polygon class="cls-10" points="612.68 351.29 619.25 393.08 623.74 392.76 622.91 350.55 612.68 351.29"/><polygon class="cls-10" points="562.47 343.9 560 386.14 564.46 386.78 572.62 345.36 562.47 343.9"/><polygon class="cls-11" points="517.88 352.88 517.88 360.85 588.86 371.82 637.19 354.88 637.19 345.29 517.88 352.88"/><line class="cls-12" x1="609.38" y1="328.44" x2="618.21" y2="326.47"/><polygon class="cls-11" points="624.91 341.17 632.14 308.29 628.77 307.26 587.88 315.05 624.91 341.17"/><path class="cls-19" d="M589.47,360.7l-71.59-8,60.67-13.52,58.64,5.93Z"/><polygon class="cls-11" points="588.78 371.82 588.78 343.9 599.68 345.8 599.68 371.82 588.78 371.82"/><polygon class="cls-11" points="517.48 360.57 517.48 332.97 528.38 334.84 528.38 360.57 517.48 360.57"/><polygon class="cls-14" points="588.78 343.9 622.5 334.15 637.19 334.15 637.19 354.88 599.68 371.5 599.68 345.78 588.78 343.9"/><path class="cls-14" d="M517.48,333l44.58-9,14,1q1.21,7.11,2.45,14.22L528.38,353.9V334.84Z"/><path class="cls-20" d="M566.31,342l9.39-37.46,52.75,2.76-6,26.92-33.72,9.75v1.57Z"/><path class="cls-16" d="M528.38,334.84l41.81-8.37q-1.43,8.05-2.86,16.1l-39,11.33Z"/><path class="cls-17" d="M576.36,316.82c-.78-.17-1.37-6.54,1.74-8.74,1.33-.93,3.1-1,3.25-.62s-2.26,1-3.12,3.12c-.62,1.55.14,2.56-.75,4.62C577.34,315.53,576.74,316.9,576.36,316.82Z"/><ellipse class="cls-17" cx="583.66" cy="307.99" rx="1.46" ry="0.73"/><g class="cls-1"><path class="cls-2" d="M99.21,268.92l128.92-7.31,169-238.35h-107Z"/></g><g class="cls-1"><path class="cls-2" d="M516,505.27h85.76q26.25-181,52.51-362.11H572Z"/></g></g></svg>