<svg xmlns="http://www.w3.org/2000/svg" xmlns:xlink="http://www.w3.org/1999/xlink" width="740" height="560" viewBox="0 0 740 560"><defs><style>.cls-1{fill:#b266f1;}.cls-2{fill:#cb99f5;}.cls-3{fill:#56287b;}.cls-4{fill:#7235a4;}.cls-5{fill:url(#linear-gradient);}.cls-6{fill:url(#radial-gradient);}.cls-7{fill:url(#radial-gradient-2);}.cls-8{fill:#d7dce8;}.cls-9{fill:#e0c2f9;}</style><linearGradient id="linear-gradient" x1="405.77" y1="360.6" x2="550.05" y2="360.6" gradientTransform="translate(-96.77 192.73) rotate(-20.75)" gradientUnits="userSpaceOnUse"><stop offset="0" stop-color="#e8e8e8"/><stop offset="0.07" stop-color="#c5c5c5"/><stop offset="0.16" stop-color="#9f9f9f"/><stop offset="0.26" stop-color="#7e7e7e"/><stop offset="0.36" stop-color="#636363"/><stop offset="0.48" stop-color="#4f4f4f"/><stop offset="0.6" stop-color="#404040"/><stop offset="0.76" stop-color="#383838"/><stop offset="1" stop-color="#353535"/></linearGradient><radialGradient id="radial-gradient" cx="563.27" cy="162.98" r="140.24" gradientUnits="userSpaceOnUse"><stop offset="0.84" stop-color="#353535"/><stop offset="1" stop-color="#e8e8e8"/></radialGradient><radialGradient id="radial-gradient-2" cx="563.27" cy="162.98" r="118.73" gradientUnits="userSpaceOnUse"><stop offset="0" stop-color="#f0f3fb"/><stop offset="0.31" stop-color="#e0e6f5"/><stop offset="0.92" stop-color="#b6c6e7"/><stop offset="1" stop-color="#b0c1e5"/></radialGradient></defs><g id="Layer_1" data-name="Layer 1"><path class="cls-1" d="M222,451.81a21.77,21.77,0,0,0,11-28.76L83.23,87.92,40.5,45.68q1.48,30,3,60L193.23,440.82A21.78,21.78,0,0,0,222,451.81Z"/><path d="M40.83,46.69l.69,18.6L54.6,59.48Z"/><path d="M14.62,463.73c5.88,3.56,27.86-23,39.86-37.21,30-35.51,84.89-107.82,185-267.37,1.57-2.83,3.27-6.06,5-9.68q2.48-5.1,4.84-10.75a201.85,201.85,0,0,0,13.09-46.66A130.72,130.72,0,0,0,220,123.69,127,127,0,0,0,208.34,139c-10.4,16-111.66,141-177.78,276.87-3.16,6.5-9,18.72-15.94,34.55C13.27,455.67,12.11,462.21,14.62,463.73Z"/><path d="M265.62,91c10.16,5.77,23.78-5.8,25.22-7,14.43-12.26,17.9-36.2,8.23-54.52-6.21-11.78-17.54-20.6-19.89-19.28-2.18,1.21,5.55,9.79,3.69,19.92-1.51,8.28-7.77,8.51-18.2,22.8-4.52,6.18-6.8,9.38-7.54,14.35C256,74.79,258.05,86.66,265.62,91Z"/><path class="cls-1" d="M269.76,49.11c1.68,7.12,15.65,11.88,20.61,7.9,2.45-2,1.89-5.37,4.31-6.17,3.31-1.09,6.62,4.7,8.78,3.84,2.46-1,2.23-10.28-.64-18.78-6.69-19.81-26.16-30.85-27.74-29.31-.92.89,5.07,5.18,5.31,13.29.13,4-1.69,8-5.31,15.94C270.67,45.44,269.14,46.47,269.76,49.11Z"/><path class="cls-2" d="M44.06,103A57.84,57.84,0,0,0,82.71,87.56L54.37,59.22,41.49,64.37Q42.78,83.71,44.06,103Z"/><circle class="cls-1" cx="373.38" cy="379.95" r="174.49"/><path class="cls-3" d="M319.31,545.79q27-82.92,54.07-165.84L207.53,325.88c-3.81,9.59-26.12,68.53,4.34,132C244.22,525.24,310,543.4,319.31,545.79Z"/><path class="cls-4" d="M294.42,224.83q39.12,78.73,78.26,157.46L207.4,326.51a171.57,171.57,0,0,1,87-101.68Z"/><rect class="cls-5" x="442.18" y="230.35" width="71.45" height="260.5" rx="25.66" transform="translate(158.78 -145.94) rotate(20.75)"/><circle class="cls-6" cx="563.27" cy="162.98" r="140.24"/><circle class="cls-7" cx="563.27" cy="162.98" r="118.73"/><path class="cls-8" d="M485.3,104.85c-4.88-8.46,10.12-30.16,29.9-39.47,17-8,35.59-5.89,36.09-3.26s-16.78,2.35-28.94,15.93C511.2,90.5,514.49,103.24,504,108,497.49,110.93,488,109.59,485.3,104.85Z"/><ellipse class="cls-8" cx="570" cy="61.38" rx="6.76" ry="10.71" transform="translate(491.61 629.29) rotate(-88.29)"/><path class="cls-9" d="M298.71,41.45c2.08-1.21.72-8-1.48-12.63s-5.71-8.29-6.34-7.9,2.13,3.49,2.41,8.91c.22,4.49-1.43,6.33,0,8.79C294.5,40.76,297.37,42.24,298.71,41.45Z"/><ellipse class="cls-9" cx="286.32" cy="17.01" rx="1.89" ry="2.99" transform="translate(73.96 209.81) rotate(-45.64)"/></g></svg>