<svg xmlns="http://www.w3.org/2000/svg" width="210" height="240" viewBox="0 0 210 240"><defs><style>.cls-1{fill:#f2f2f2;}.cls-2{fill:#838383;}.cls-3{fill:#d9d9d9;}.cls-4{fill:#8f8f8f;}.cls-5{fill:#c78fff;}.cls-6{fill:#c773ff;}</style></defs><g id="Layer_4" data-name="Layer 4"><rect class="cls-1" x="2.02" y="88.75" width="198.03" height="119.7" rx="13.95"/><rect class="cls-2" x="118.2" y="2.5" width="86.25" height="235" rx="12.39"/><rect class="cls-1" x="121.72" y="2.5" width="86.25" height="235" rx="12.1"/><rect class="cls-3" x="130.51" y="74.32" width="70.12" height="63.44"/><rect class="cls-3" x="12.58" y="153.01" width="105.62" height="46.65"/><rect class="cls-3" x="130.51" y="191.36" width="70.12" height="41.74"/><rect class="cls-4" x="16.99" y="161.81" width="101.22" height="1.76"/><rect class="cls-4" x="16.99" y="174.13" width="101.22" height="1.76"/><rect class="cls-4" x="16.99" y="185.57" width="101.22" height="1.76"/><rect class="cls-4" x="137.04" y="198.87" width="56.91" height="1.68"/><rect class="cls-4" x="137.23" y="214.58" width="56.91" height="1.68"/><rect class="cls-4" x="137.23" y="230.44" width="56.91" height="1.68"/><rect class="cls-4" x="137.2" y="103.44" width="56.91" height="1.68"/><rect class="cls-4" x="137.2" y="119.3" width="56.91" height="1.68"/><rect class="cls-4" x="137.1" y="87.57" width="56.91" height="1.68"/><path class="cls-5" d="M196.56,61.16H134V15.5h62.59Z"/><path class="cls-6" d="M133.56,57,144.4,45.83a5.67,5.67,0,0,1,3.76-2.44c2.14-.23,3.91,1.28,6.75,3.78,8.12,7.13,8.51,7.8,9.52,7.72,2.95-.24,3.44-6.23,9.18-17.08,4.32-8.16,6.12-8.69,7.1-8.72,3.56-.1,6.59,6.06,8.76,10.46,1.81,3.67,2.76,7,4.59,13.6.92,3.3,1.61,6.07,2.09,8H133.56Z"/><ellipse class="cls-6" cx="145.03" cy="28.57" rx="6.88" ry="5.75"/><path class="cls-5" d="M200,185.49H130.49v-39H200Z"/><path class="cls-6" d="M130,181.92l12.06-9.52a6.66,6.66,0,0,1,4.17-2.09c2.37-.19,4.34,1.1,7.49,3.23,9,6.09,9.46,6.67,10.59,6.6,3.27-.21,3.81-5.32,10.2-14.59,4.79-7,6.79-7.42,7.88-7.44,4-.09,7.32,5.17,9.73,8.93,2,3.13,3.07,6,5.1,11.61,1,2.82,1.8,5.18,2.32,6.84H130Z"/><ellipse class="cls-6" cx="142.77" cy="157.66" rx="7.65" ry="4.91"/><path class="cls-5" d="M118,148.5H14.07v-51H118Z"/><path class="cls-6" d="M13.38,143.83l18-12.46a10.47,10.47,0,0,1,6.24-2.72c3.55-.25,6.49,1.43,11.21,4.22,13.49,8,14.14,8.71,15.82,8.62,4.89-.27,5.7-7,15.25-19.07,7.17-9.12,10.15-9.71,11.78-9.74,5.91-.11,11,6.77,14.55,11.68,3,4.1,4.59,7.85,7.62,15.19,1.53,3.69,2.69,6.78,3.47,8.95H13.38Z"/></g></svg>