<svg id="Layer_4" data-name="Layer 4" xmlns="http://www.w3.org/2000/svg" xmlns:xlink="http://www.w3.org/1999/xlink" width="310" height="290" viewBox="0 0 310 290"><defs><style>.cls-1{stroke:#fff;stroke-miterlimit:10;opacity:0.5;fill:url(#linear-gradient);}.cls-1,.cls-3{isolation:isolate;}.cls-2,.cls-3{opacity:0.7;}.cls-4{opacity:0.2;}.cls-5{fill:#fff;}</style><linearGradient id="linear-gradient" x1="0.73" y1="-1723.92" x2="293.37" y2="-1723.92" gradientTransform="matrix(1, 0, 0, -1, 0, -1578.92)" gradientUnits="userSpaceOnUse"><stop offset="0" stop-color="#fff"/><stop offset="1" stop-color="#9f00d3"/></linearGradient></defs><ellipse class="cls-1" cx="147.05" cy="145" rx="146.32" ry="142.45"/><g class="cls-2"><path class="cls-3" d="M39.41,135.79A6.44,6.44,0,0,1,33,142.24H12.24v7.23H8.11V125.73H33a6.44,6.44,0,0,1,6.44,6.45Zm-4.12,2.33v-8.26h-23v8.26Z"/><path class="cls-3" d="M74.93,143a6.44,6.44,0,0,1-6.45,6.45H50.08A6.44,6.44,0,0,1,43.63,143V132.18a6.44,6.44,0,0,1,6.45-6.45h18.4a6.44,6.44,0,0,1,6.45,6.45Zm-4.13,2.32V129.86h-23v15.48Z"/><path class="cls-3" d="M111.05,149.47h-4.13v-7.23h-23v7.23H79.75V125.73H104.6a6.44,6.44,0,0,1,6.45,6.45v3.61a4.85,4.85,0,0,1-2.62,4.39,4.85,4.85,0,0,1,2.62,4.38Zm-4.13-11.35v-8.26h-23v8.26Z"/><path class="cls-3" d="M144.76,129.86H131.35v19.61h-4.13V129.86H113.81v-4.13h30.95Z"/><path class="cls-3" d="M178.82,139.66H151.65v9.81h-4.13V132.18a6.44,6.44,0,0,1,6.45-6.45h24.85v4.13H151.65v5.68h27.17Z"/><path class="cls-3" d="M214.94,143a6.44,6.44,0,0,1-6.45,6.45h-18.4a6.44,6.44,0,0,1-6.45-6.45V132.18a6.44,6.44,0,0,1,6.45-6.45h18.4a6.44,6.44,0,0,1,6.45,6.45Zm-4.13,2.32V129.86h-23v15.48Z"/><path class="cls-3" d="M244.87,149.47H226.21a6.44,6.44,0,0,1-6.45-6.45V125.73h4.13v19.61h21Z"/><path class="cls-3" d="M252.61,149.47h-4.13V125.73h4.13Z"/><path class="cls-3" d="M288.73,143a6.44,6.44,0,0,1-6.45,6.45H263.87a6.44,6.44,0,0,1-6.44-6.45V132.18a6.44,6.44,0,0,1,6.44-6.45h18.41a6.44,6.44,0,0,1,6.45,6.45Zm-4.13,2.32V129.86H261.55v15.48Z"/></g><g class="cls-4"><path class="cls-5" d="M78,267.47a79.3,79.3,0,0,1-44.25-32.18l138-229.94a271.84,271.84,0,0,1,57.76,19.46Z"/></g></svg>