<svg id="Layer_3" data-name="Layer 3" xmlns="http://www.w3.org/2000/svg" xmlns:xlink="http://www.w3.org/1999/xlink" width="470" height="240" viewBox="0 0 470 240"><defs><style>.cls-1{stroke:#fff;stroke-miterlimit:10;opacity:0.5;fill:url(#linear-gradient);}.cls-1,.cls-2,.cls-6{isolation:isolate;}.cls-2,.cls-4{fill:#fffef9;}.cls-2,.cls-3{opacity:0.2;}.cls-5,.cls-6{opacity:0.7;}</style><linearGradient id="linear-gradient" x1="3.18" y1="120" x2="452.68" y2="120" gradientUnits="userSpaceOnUse"><stop offset="0" stop-color="#fff"/><stop offset="1" stop-color="#5b00d4"/></linearGradient></defs><path class="cls-1" d="M429,235.35H26.88a23.7,23.7,0,0,1-23.7-23.7h0V28.36A23.7,23.7,0,0,1,26.87,4.65H429a23.71,23.71,0,0,1,23.7,23.7h0V211.61A23.73,23.73,0,0,1,429,235.35Z"/><circle class="cls-2" cx="239.7" cy="119.99" r="52.79"/><g class="cls-3"><path class="cls-4" d="M77,235.35h83.62L278.25,4.62H196.78Z"/></g><path class="cls-5" d="M38.35,55.2H34.23V31.46h4.12Z"/><path class="cls-5" d="M74.39,48.75a6.44,6.44,0,0,1-6.45,6.45H43.08V51.07H70.26V45.39H48.41A6.45,6.45,0,0,1,42,38.94v-1a6.45,6.45,0,0,1,6.45-6.45H73.27v4.13H46.09v5.67H67.94a6.45,6.45,0,0,1,6.45,6.45Z"/><path class="cls-5" d="M108.87,55.2h-26a6.44,6.44,0,0,1-6.45-6.45v-1a6.45,6.45,0,0,1,6.45-6.45h21.84V35.59H77.57V31.46h24.85a6.44,6.44,0,0,1,6.45,6.45Zm-4.13-4.13V45.39H80.58v5.68Z"/><path class="cls-5" d="M145,48.75a6.44,6.44,0,0,1-6.45,6.45H113.69V22.69h4.13v8.77h20.72A6.44,6.44,0,0,1,145,37.91Zm-4.13,2.32V35.59h-23V51.07Z"/><path class="cls-5" d="M181.11,55.2H156.26a6.44,6.44,0,0,1-6.45-6.45V37.91a6.44,6.44,0,0,1,6.45-6.45h18.4a6.44,6.44,0,0,1,6.45,6.45v7.48H153.94v5.68h27.17ZM177,41.26V35.59h-23v5.67Z"/><path class="cls-5" d="M190.06,55.2h-4.13V22.69h4.13Z"/><path class="cls-5" d="M199,55.2h-4.13V22.69H199Z"/><path class="cls-5" d="M234.69,55.2h-26a6.44,6.44,0,0,1-6.45-6.45v-1a6.45,6.45,0,0,1,6.45-6.45h21.84V35.59H203.39V31.46h24.85a6.44,6.44,0,0,1,6.45,6.45Zm-4.13-4.13V45.39H206.4v5.68Z"/><path class="cls-6" d="M284.36,190.81,277,211.88a4.65,4.65,0,0,1-8.73,0l-6.45-18.57-6.45,18.57a4.66,4.66,0,0,1-4.39,3.05,4.6,4.6,0,0,1-4.38-3.05l-7.4-21.07h4.39L251,212.05l6.45-18.57a4.59,4.59,0,0,1,4.39-3.06,4.67,4.67,0,0,1,4.39,3.06l6.45,18.57L280,190.81Z"/><path class="cls-6" d="M318.25,214.55h-26a6.44,6.44,0,0,1-6.45-6.45v-1a6.44,6.44,0,0,1,6.45-6.45h21.84v-5.68H287v-4.13H311.8a6.44,6.44,0,0,1,6.45,6.45Zm-4.13-4.13v-5.68H290v5.68Z"/><path class="cls-6" d="M354.37,214.55h-4.13V194.94H327.19v19.61h-4.12V182h4.12v8.77h20.73a6.44,6.44,0,0,1,6.45,6.45Z"/><path class="cls-6" d="M363.31,214.55h-4.13V182h4.13Z"/><path class="cls-6" d="M411.47,208.1a6.44,6.44,0,0,1-6.45,6.45H384.3v8.77h-4.13V190.81H405a6.44,6.44,0,0,1,6.45,6.45Zm-4.13,2.32V194.94h-23v15.48Z"/><path class="cls-6" d="M420.42,214.55h-4.13v-5.16h4.13Z"/></svg>